<?xml version="1.0" encoding="UTF-8"?>
<!DOCTYPE svg PUBLIC "-//W3C//DTD SVG 1.1//EN" "http://www.w3.org/Graphics/SVG/1.1/DTD/svg11.dtd">
<svg xmlns="http://www.w3.org/2000/svg" version="1.1" width="675px" height="623px" style="shape-rendering:geometricPrecision; text-rendering:geometricPrecision; image-rendering:optimizeQuality; fill-rule:evenodd; clip-rule:evenodd" xmlns:xlink="http://www.w3.org/1999/xlink">
<g><path style="opacity:1" fill="#3471ab" d="M 511.5,271.5 C 510.5,273.167 509.167,274.5 507.5,275.5C 498.561,282.65 489.561,289.816 480.5,297C 470.668,304.086 460.334,310.419 449.5,316C 462.81,321.55 476.31,326.716 490,331.5C 504.891,325.304 519.725,318.971 534.5,312.5C 535.48,315.086 535.813,317.753 535.5,320.5C 525.094,324.386 514.76,328.552 504.5,333C 501.733,333.669 501.233,334.836 503,336.5C 559.7,358.27 616.534,379.604 673.5,400.5C 673.762,401.978 673.429,403.311 672.5,404.5C 623.676,429.411 575.01,454.578 526.5,480C 542.654,487.574 558.987,494.907 575.5,502C 576.783,504.795 576.783,507.628 575.5,510.5C 555.593,501.962 535.76,493.296 516,484.5C 457.667,514.833 399.333,545.167 341,575.5C 340.5,590.83 340.333,606.163 340.5,621.5C 337.833,621.5 335.167,621.5 332.5,621.5C 332.667,605.83 332.5,590.163 332,574.5C 275.069,544.617 217.902,515.117 160.5,486C 156.598,485.262 152.932,485.928 149.5,488C 131.926,495.705 114.426,503.538 97,511.5C 96.2165,508.24 96.3832,505.073 97.5,502C 114.167,494.667 130.833,487.333 147.5,480C 99.1464,454.489 50.4797,429.489 1.5,405C 0.166667,403.667 0.166667,402.333 1.5,401C 41.2931,385.685 81.1264,370.518 121,355.5C 95.5274,276.397 105.861,202.397 152,133.5C 173.139,103.364 200.973,81.8638 235.5,69C 255.425,63.1571 275.758,60.9905 296.5,62.5C 294.644,85.8193 292.977,109.153 291.5,132.5C 260.886,128.729 235.052,138.062 214,160.5C 213.209,161.745 212.709,163.078 212.5,164.5C 210.983,164.511 209.816,165.177 209,166.5C 193.141,187.06 184.141,210.394 182,236.5C 180.718,254.978 181.718,273.312 185,291.5C 187.959,302.254 193.125,311.754 200.5,320C 201.745,320.791 203.078,321.291 204.5,321.5C 204.843,323.225 205.843,323.725 207.5,323C 249.07,307.296 290.57,291.463 332,275.5C 332.07,240.478 332.737,205.478 334,170.5C 338.236,124.435 354.236,83.1014 382,46.5C 398.51,26.5002 419.01,12.3335 443.5,4C 477.896,-6.1037 503.062,4.72964 519,36.5C 526.644,54.7191 530.978,73.7191 532,93.5C 533.047,114.247 532.214,134.913 529.5,155.5C 529.38,158.064 528.047,159.564 525.5,160C 480.833,176.667 436.167,193.333 391.5,210C 388.72,229.553 394.387,246.219 408.5,260C 417.953,266.146 428.286,268.146 439.5,266C 454.055,262.223 467.055,255.557 478.5,246C 491.74,234.762 503.573,222.262 514,208.5C 514.208,229.563 513.374,250.563 511.5,271.5 Z M 420.5,76.5 C 421.833,75.8333 422.833,74.8333 423.5,73.5C 431.62,65.8971 441.287,61.5638 452.5,60.5C 467.368,62.8665 476.201,71.5331 479,86.5C 482.027,98.6729 483.027,111.006 482,123.5C 452.221,133.927 422.387,144.26 392.5,154.5C 393.301,125.431 402.634,99.431 420.5,76.5 Z M 328.5,487.5 C 329.5,487.5 330.5,487.5 331.5,487.5C 331.667,514.502 331.5,541.502 331,568.5C 303.578,554.206 276.078,540.039 248.5,526C 275.38,513.392 302.046,500.559 328.5,487.5 Z M 418.5,445.5 C 420.199,445.34 421.866,445.506 423.5,446C 451.717,458.608 480.05,470.942 508.5,483C 483.324,496.422 457.991,509.588 432.5,522.5C 403.209,508.57 373.876,494.737 344.5,481C 369.38,469.392 394.046,457.558 418.5,445.5 Z M 250.5,445.5 C 252.199,445.34 253.866,445.506 255.5,446C 280.167,457.667 304.833,469.333 329.5,481C 300.046,494.56 270.712,508.394 241.5,522.5C 216.009,509.588 190.676,496.422 165.5,483C 194.059,470.768 222.393,458.268 250.5,445.5 Z M 342.5,410.5 C 365.956,420.728 389.29,431.228 412.5,442C 389.5,452.833 366.5,463.667 343.5,474.5C 342.5,453.177 342.167,431.844 342.5,410.5 Z M 330.5,410.5 C 331.828,431.67 331.828,453.004 330.5,474.5C 307.348,463.757 284.348,452.757 261.5,441.5C 284.651,431.345 307.651,421.012 330.5,410.5 Z M 503.5,405.5 C 532.769,417.425 562.103,429.258 591.5,441C 568.833,452.667 546.167,464.333 523.5,476C 521.447,476.325 519.447,475.991 517.5,475C 490.018,463.091 462.685,450.924 435.5,438.5C 458.227,427.469 480.894,416.469 503.5,405.5 Z M 167.5,405.5 C 191.296,416.231 214.962,427.231 238.5,438.5C 211.96,450.603 185.293,462.436 158.5,474C 155.911,475.314 153.244,475.981 150.5,476C 127.833,464.333 105.167,452.667 82.5,441C 110.892,429.132 139.226,417.299 167.5,405.5 Z M 275.5,382.5 C 291.364,388.429 307.03,394.929 322.5,402C 297.377,413.312 272.21,424.479 247,435.5C 228.909,426.872 210.742,418.372 192.5,410C 222.759,408.302 250.426,399.136 275.5,382.5 Z M 419.5,371.5 C 444.96,381.708 470.293,392.208 495.5,403C 472.5,413.833 449.5,424.667 426.5,435.5C 401.47,424.316 376.47,413.15 351.5,402C 374.375,392.058 397.042,381.891 419.5,371.5 Z M 577.5,370.5 C 606.973,380.826 636.306,391.659 665.5,403C 643.078,414.628 620.578,426.128 598,437.5C 569.239,425.537 540.405,413.704 511.5,402C 533.713,391.725 555.713,381.225 577.5,370.5 Z M 93.5,370.5 C 116.022,380.512 138.355,391.012 160.5,402C 132.914,413.529 105.247,424.862 77.5,436C 75.8333,436.667 74.1667,436.667 72.5,436C 51.3423,425.255 30.3423,414.255 9.5,403C 37.6995,392.389 65.6995,381.556 93.5,370.5 Z M 137.5,383.5 C 125.816,378.436 114.149,373.269 102.5,368C 108.799,365.401 115.133,362.901 121.5,360.5C 126.571,368.295 131.905,375.962 137.5,383.5 Z M 342.5,340.5 C 363.925,348.71 385.258,357.21 406.5,366C 385.376,375.313 364.21,384.48 343,393.5C 342.5,375.836 342.333,358.17 342.5,340.5 Z M 495.5,338.5 C 520.432,348.09 545.432,357.59 570.5,367C 548.434,378.033 526.1,388.533 503.5,398.5C 478.248,388.871 453.248,378.705 428.5,368C 451.158,358.666 473.491,348.832 495.5,338.5 Z M 330.5,339.5 C 331.827,357.338 331.827,375.338 330.5,393.5C 316.617,387.059 302.617,380.892 288.5,375C 293.941,371.193 299.108,367.027 304,362.5C 303.819,358.453 303.985,354.453 304.5,350.5C 313.267,346.808 321.934,343.142 330.5,339.5 Z M 302.5,324.5 C 310.837,327.558 319.17,330.725 327.5,334C 319.741,337.629 311.908,341.129 304,344.5C 303.048,337.864 302.548,331.197 302.5,324.5 Z M 443.5,319.5 C 456.143,323.38 468.476,328.047 480.5,333.5C 458.574,343.645 436.408,353.311 414,362.5C 390.965,353.396 368.131,343.896 345.5,334C 354.84,329.775 364.34,325.942 374,322.5C 391.065,329.923 408.565,331.089 426.5,326C 432.569,324.58 438.236,322.413 443.5,319.5 Z M 260.5,307.5 C 266.576,309.368 272.576,311.534 278.5,314C 261.214,326.985 241.881,331.985 220.5,329C 217.756,328.197 215.089,327.197 212.5,326C 228.699,320.056 244.699,313.889 260.5,307.5 Z M 328.5,281.5 C 329.5,281.5 330.5,281.5 331.5,281.5C 331.5,297.167 331.5,312.833 331.5,328.5C 321.4,325.201 311.566,321.201 302,316.5C 301.5,309.842 301.334,303.175 301.5,296.5C 300.448,296.351 299.448,296.517 298.5,297C 294.57,302.053 290.07,306.553 285,310.5C 280.241,308.205 275.408,306.038 270.5,304C 290.051,296.766 309.384,289.266 328.5,281.5 Z M 342.5,284.5 C 347.538,298.05 355.871,309.217 367.5,318C 359.398,321.699 351.232,325.199 343,328.5C 342.5,313.837 342.333,299.17 342.5,284.5 Z M 342.5,487.5 C 370.385,499.775 398.052,512.608 425.5,526C 398.043,539.965 370.709,554.132 343.5,568.5C 342.5,541.508 342.167,514.508 342.5,487.5 Z"/></g>
<g><path style="opacity:0.687" fill="#06699d" d="M 455.5,-0.5 C 462.5,-0.5 469.5,-0.5 476.5,-0.5C 493.454,3.24862 506.62,12.582 516,27.5C 526.027,46.9389 531.694,67.6056 533,89.5C 533.667,104.833 533.667,120.167 533,135.5C 532.656,143.599 531.656,151.599 530,159.5C 484.237,176.963 438.403,194.296 392.5,211.5C 390.963,229.389 396.296,244.889 408.5,258C 421.887,266.67 435.887,267.67 450.5,261C 470.853,251.327 488.353,237.827 503,220.5C 506.76,215.317 510.76,210.317 515,205.5C 515.374,226.839 515.04,248.173 514,269.5C 513.292,270.381 512.458,271.047 511.5,271.5C 513.374,250.563 514.208,229.563 514,208.5C 503.573,222.262 491.74,234.762 478.5,246C 467.055,255.557 454.055,262.223 439.5,266C 428.286,268.146 417.953,266.146 408.5,260C 394.387,246.219 388.72,229.553 391.5,210C 436.167,193.333 480.833,176.667 525.5,160C 528.047,159.564 529.38,158.064 529.5,155.5C 532.214,134.913 533.047,114.247 532,93.5C 530.978,73.7191 526.644,54.7191 519,36.5C 503.062,4.72964 477.896,-6.1037 443.5,4C 419.01,12.3335 398.51,26.5002 382,46.5C 354.236,83.1014 338.236,124.435 334,170.5C 332.737,205.478 332.07,240.478 332,275.5C 290.57,291.463 249.07,307.296 207.5,323C 205.843,323.725 204.843,323.225 204.5,321.5C 246.757,306.635 288.757,290.969 330.5,274.5C 331.654,251.669 331.654,228.836 330.5,206C 330.051,163.578 338.551,123.078 356,84.5C 371.595,51.9063 395.095,26.7396 426.5,9C 435.99,4.89139 445.657,1.72473 455.5,-0.5 Z M 420.5,76.5 C 421.833,75.8333 422.833,74.8333 423.5,73.5C 431.62,65.8971 441.287,61.5638 452.5,60.5C 467.368,62.8665 476.201,71.5331 479,86.5C 482.027,98.6729 483.027,111.006 482,123.5C 452.221,133.927 422.387,144.26 392.5,154.5C 393.301,125.431 402.634,99.431 420.5,76.5 Z"/></g>
<g><path style="opacity:0.596" fill="#06699e" d="M 420.5,76.5 C 402.634,99.431 393.301,125.431 392.5,154.5C 422.387,144.26 452.221,133.927 482,123.5C 483.027,111.006 482.027,98.6729 479,86.5C 476.201,71.5331 467.368,62.8665 452.5,60.5C 441.287,61.5638 431.62,65.8971 423.5,73.5C 432.123,62.7041 443.457,58.2041 457.5,60C 469.37,63.5385 476.87,71.3718 480,83.5C 483.89,96.9507 485.057,110.617 483.5,124.5C 452.668,135.247 421.835,145.914 391,156.5C 390.977,128.58 398.977,103.247 415,80.5C 416.451,78.5359 418.284,77.2026 420.5,76.5 Z"/></g>
<g><path style="opacity:0.569" fill="#07699e" d="M 212.5,164.5 C 191.835,191.665 181.835,222.498 182.5,257C 182.618,271.164 184.785,284.997 189,298.5C 192.467,307.439 197.634,315.106 204.5,321.5C 203.078,321.291 201.745,320.791 200.5,320C 193.125,311.754 187.959,302.254 185,291.5C 181.718,273.312 180.718,254.978 182,236.5C 184.141,210.394 193.141,187.06 209,166.5C 209.816,165.177 210.983,164.511 212.5,164.5 Z"/></g>
<g><path style="opacity:0.637" fill="#06699e" d="M 212.5,164.5 C 212.709,163.078 213.209,161.745 214,160.5C 235.052,138.062 260.886,128.729 291.5,132.5C 292.977,109.153 294.644,85.8193 296.5,62.5C 275.758,60.9905 255.425,63.1571 235.5,69C 200.973,81.8638 173.139,103.364 152,133.5C 105.861,202.397 95.5274,276.397 121,355.5C 81.1264,370.518 41.2931,385.685 1.5,401C 0.166667,402.333 0.166667,403.667 1.5,405C 50.4797,429.489 99.1464,454.489 147.5,480C 130.833,487.333 114.167,494.667 97.5,502C 96.3832,505.073 96.2165,508.24 97,511.5C 114.426,503.538 131.926,495.705 149.5,488C 152.932,485.928 156.598,485.262 160.5,486C 217.902,515.117 275.069,544.617 332,574.5C 332.5,590.163 332.667,605.83 332.5,621.5C 335.167,621.5 337.833,621.5 340.5,621.5C 340.333,606.163 340.5,590.83 341,575.5C 399.333,545.167 457.667,514.833 516,484.5C 535.76,493.296 555.593,501.962 575.5,510.5C 576.783,507.628 576.783,504.795 575.5,502C 558.987,494.907 542.654,487.574 526.5,480C 575.01,454.578 623.676,429.411 672.5,404.5C 673.429,403.311 673.762,401.978 673.5,400.5C 616.534,379.604 559.7,358.27 503,336.5C 501.233,334.836 501.733,333.669 504.5,333C 514.76,328.552 525.094,324.386 535.5,320.5C 535.813,317.753 535.48,315.086 534.5,312.5C 519.725,318.971 504.891,325.304 490,331.5C 476.31,326.716 462.81,321.55 449.5,316C 460.334,310.419 470.668,304.086 480.5,297C 489.561,289.816 498.561,282.65 507.5,275.5C 491.381,291.445 473.381,304.945 453.5,316C 465.526,320.897 477.693,325.397 490,329.5C 505.275,323.463 520.441,317.13 535.5,310.5C 536.833,314.167 536.833,317.833 535.5,321.5C 525.167,326 514.833,330.5 504.5,335C 561.078,356.791 617.744,378.291 674.5,399.5C 674.5,401.5 674.5,403.5 674.5,405.5C 625.88,429.81 577.547,454.643 529.5,480C 545.5,487 561.5,494 577.5,501C 578.798,505.118 578.798,509.285 577.5,513.5C 557.25,504.306 536.917,495.306 516.5,486.5C 458.677,515.911 401.01,545.578 343.5,575.5C 342.501,591.152 342.167,606.819 342.5,622.5C 338.833,622.5 335.167,622.5 331.5,622.5C 331.825,606.589 331.491,590.756 330.5,575C 272.833,545.5 215.167,516 157.5,486.5C 136.926,495.371 116.426,504.371 96,513.5C 95.2039,509.245 95.3705,505.079 96.5,501C 112.417,493.806 128.417,486.806 144.5,480C 96.14,455.154 47.8066,430.32 -0.5,405.5C -0.5,403.5 -0.5,401.5 -0.5,399.5C 39.5087,384.997 79.3421,369.997 119,354.5C 91.2804,264.43 107.614,183.43 168,111.5C 203.316,73.7689 246.816,57.1022 298.5,61.5C 296.407,85.8001 294.74,110.133 293.5,134.5C 260.929,129.908 233.929,139.908 212.5,164.5 Z M 328.5,487.5 C 302.046,500.559 275.38,513.392 248.5,526C 276.078,540.039 303.578,554.206 331,568.5C 331.5,541.502 331.667,514.502 331.5,487.5C 330.5,487.5 329.5,487.5 328.5,487.5 Z M 418.5,445.5 C 394.046,457.558 369.38,469.392 344.5,481C 373.876,494.737 403.209,508.57 432.5,522.5C 457.991,509.588 483.324,496.422 508.5,483C 480.05,470.942 451.717,458.608 423.5,446C 421.866,445.506 420.199,445.34 418.5,445.5 Z M 250.5,445.5 C 222.393,458.268 194.059,470.768 165.5,483C 190.676,496.422 216.009,509.588 241.5,522.5C 270.712,508.394 300.046,494.56 329.5,481C 304.833,469.333 280.167,457.667 255.5,446C 253.866,445.506 252.199,445.34 250.5,445.5 Z M 342.5,410.5 C 342.167,431.844 342.5,453.177 343.5,474.5C 366.5,463.667 389.5,452.833 412.5,442C 389.29,431.228 365.956,420.728 342.5,410.5 Z M 330.5,410.5 C 307.651,421.012 284.651,431.345 261.5,441.5C 284.348,452.757 307.348,463.757 330.5,474.5C 331.828,453.004 331.828,431.67 330.5,410.5 Z M 503.5,405.5 C 480.894,416.469 458.227,427.469 435.5,438.5C 462.685,450.924 490.018,463.091 517.5,475C 519.447,475.991 521.447,476.325 523.5,476C 546.167,464.333 568.833,452.667 591.5,441C 562.103,429.258 532.769,417.425 503.5,405.5 Z M 167.5,405.5 C 139.226,417.299 110.892,429.132 82.5,441C 105.167,452.667 127.833,464.333 150.5,476C 153.244,475.981 155.911,475.314 158.5,474C 185.293,462.436 211.96,450.603 238.5,438.5C 214.962,427.231 191.296,416.231 167.5,405.5 Z M 275.5,382.5 C 250.426,399.136 222.759,408.302 192.5,410C 210.742,418.372 228.909,426.872 247,435.5C 272.21,424.479 297.377,413.312 322.5,402C 307.03,394.929 291.364,388.429 275.5,382.5 Z M 419.5,371.5 C 397.042,381.891 374.375,392.058 351.5,402C 376.47,413.15 401.47,424.316 426.5,435.5C 449.5,424.667 472.5,413.833 495.5,403C 470.293,392.208 444.96,381.708 419.5,371.5 Z M 577.5,370.5 C 555.713,381.225 533.713,391.725 511.5,402C 540.405,413.704 569.239,425.537 598,437.5C 620.578,426.128 643.078,414.628 665.5,403C 636.306,391.659 606.973,380.826 577.5,370.5 Z M 93.5,370.5 C 65.6995,381.556 37.6995,392.389 9.5,403C 30.3423,414.255 51.3423,425.255 72.5,436C 74.1667,436.667 75.8333,436.667 77.5,436C 105.247,424.862 132.914,413.529 160.5,402C 138.355,391.012 116.022,380.512 93.5,370.5 Z M 137.5,383.5 C 131.905,375.962 126.571,368.295 121.5,360.5C 115.133,362.901 108.799,365.401 102.5,368C 114.149,373.269 125.816,378.436 137.5,383.5 Z M 342.5,340.5 C 342.333,358.17 342.5,375.836 343,393.5C 364.21,384.48 385.376,375.313 406.5,366C 385.258,357.21 363.925,348.71 342.5,340.5 Z M 495.5,338.5 C 473.491,348.832 451.158,358.666 428.5,368C 453.248,378.705 478.248,388.871 503.5,398.5C 526.1,388.533 548.434,378.033 570.5,367C 545.432,357.59 520.432,348.09 495.5,338.5 Z M 330.5,339.5 C 321.934,343.142 313.267,346.808 304.5,350.5C 303.985,354.453 303.819,358.453 304,362.5C 299.108,367.027 293.941,371.193 288.5,375C 302.617,380.892 316.617,387.059 330.5,393.5C 331.827,375.338 331.827,357.338 330.5,339.5 Z M 302.5,324.5 C 302.548,331.197 303.048,337.864 304,344.5C 311.908,341.129 319.741,337.629 327.5,334C 319.17,330.725 310.837,327.558 302.5,324.5 Z M 443.5,319.5 C 438.236,322.413 432.569,324.58 426.5,326C 408.565,331.089 391.065,329.923 374,322.5C 364.34,325.942 354.84,329.775 345.5,334C 368.131,343.896 390.965,353.396 414,362.5C 436.408,353.311 458.574,343.645 480.5,333.5C 468.476,328.047 456.143,323.38 443.5,319.5 Z M 260.5,307.5 C 244.699,313.889 228.699,320.056 212.5,326C 215.089,327.197 217.756,328.197 220.5,329C 241.881,331.985 261.214,326.985 278.5,314C 272.576,311.534 266.576,309.368 260.5,307.5 Z M 328.5,281.5 C 309.384,289.266 290.051,296.766 270.5,304C 275.408,306.038 280.241,308.205 285,310.5C 290.07,306.553 294.57,302.053 298.5,297C 299.448,296.517 300.448,296.351 301.5,296.5C 301.334,303.175 301.5,309.842 302,316.5C 311.566,321.201 321.4,325.201 331.5,328.5C 331.5,312.833 331.5,297.167 331.5,281.5C 330.5,281.5 329.5,281.5 328.5,281.5 Z M 342.5,284.5 C 342.333,299.17 342.5,313.837 343,328.5C 351.232,325.199 359.398,321.699 367.5,318C 355.871,309.217 347.538,298.05 342.5,284.5 Z M 342.5,487.5 C 342.167,514.508 342.5,541.508 343.5,568.5C 370.709,554.132 398.043,539.965 425.5,526C 398.052,512.608 370.385,499.775 342.5,487.5 Z"/></g>
<g><path style="opacity:0.658" fill="#06699e" d="M 330.5,408.5 C 331.833,435.158 332.5,462.158 332.5,489.5C 332.167,516.5 331.833,543.5 331.5,570.5C 302.676,555.922 274.01,541.089 245.5,526C 273.67,512.218 302.003,498.718 330.5,485.5C 331.386,484.675 331.719,483.675 331.5,482.5C 301.527,496.152 271.527,509.818 241.5,523.5C 214.89,510.529 188.557,497.029 162.5,483C 192.491,469.421 222.658,456.254 253,443.5C 278.773,455.637 304.607,467.637 330.5,479.5C 331.833,478.5 331.833,477.5 330.5,476.5C 306.045,465.106 281.712,453.439 257.5,441.5C 281.985,430.679 306.318,419.679 330.5,408.5 Z M 328.5,487.5 C 302.046,500.559 275.38,513.392 248.5,526C 276.078,540.039 303.578,554.206 331,568.5C 331.5,541.502 331.667,514.502 331.5,487.5C 330.5,487.5 329.5,487.5 328.5,487.5 Z M 250.5,445.5 C 222.393,458.268 194.059,470.768 165.5,483C 190.676,496.422 216.009,509.588 241.5,522.5C 270.712,508.394 300.046,494.56 329.5,481C 304.833,469.333 280.167,457.667 255.5,446C 253.866,445.506 252.199,445.34 250.5,445.5 Z M 330.5,410.5 C 307.651,421.012 284.651,431.345 261.5,441.5C 284.348,452.757 307.348,463.757 330.5,474.5C 331.828,453.004 331.828,431.67 330.5,410.5 Z"/></g>
<g><path style="opacity:0.61" fill="#06699e" d="M 168.5,403.5 C 192.96,414.896 217.293,426.563 241.5,438.5C 211.859,452.237 182.026,465.57 152,478.5C 127.72,465.944 103.553,453.278 79.5,440.5C 109.152,427.955 138.819,415.621 168.5,403.5 Z M 167.5,405.5 C 139.226,417.299 110.892,429.132 82.5,441C 105.167,452.667 127.833,464.333 150.5,476C 153.244,475.981 155.911,475.314 158.5,474C 185.293,462.436 211.96,450.603 238.5,438.5C 214.962,427.231 191.296,416.231 167.5,405.5 Z"/></g>
<g><path style="opacity:0.61" fill="#06699e" d="M 419.5,443.5 C 450.254,456.366 480.92,469.532 511.5,483C 484.588,497.039 457.754,511.206 431,525.5C 430.751,524.376 430.251,523.376 429.5,522.5C 400.046,508.94 370.712,495.106 341.5,481C 367.439,468.197 393.439,455.697 419.5,443.5 Z M 418.5,445.5 C 394.046,457.558 369.38,469.392 344.5,481C 373.876,494.737 403.209,508.57 432.5,522.5C 457.991,509.588 483.324,496.422 508.5,483C 480.05,470.942 451.717,458.608 423.5,446C 421.866,445.506 420.199,445.34 418.5,445.5 Z"/></g>
<g><path style="opacity:0.637" fill="#06699e" d="M 340.5,408.5 C 365.759,418.919 390.759,429.919 415.5,441.5C 392.665,452.949 369.665,464.115 346.5,475C 344.564,475.813 342.564,476.313 340.5,476.5C 340.5,453.833 340.5,431.167 340.5,408.5 Z M 342.5,410.5 C 342.167,431.844 342.5,453.177 343.5,474.5C 366.5,463.667 389.5,452.833 412.5,442C 389.29,431.228 365.956,420.728 342.5,410.5 Z"/></g>
<g><path style="opacity:0.551" fill="#06699e" d="M 501.5,404.5 C 504.271,404.421 506.937,404.921 509.5,406C 537.469,417.6 565.469,429.1 593.5,440.5C 569.851,453.66 545.851,466.327 521.5,478.5C 491.47,465.15 461.47,451.816 431.5,438.5C 454.894,427.136 478.227,415.802 501.5,404.5 Z M 503.5,405.5 C 480.894,416.469 458.227,427.469 435.5,438.5C 462.685,450.924 490.018,463.091 517.5,475C 519.447,475.991 521.447,476.325 523.5,476C 546.167,464.333 568.833,452.667 591.5,441C 562.103,429.258 532.769,417.425 503.5,405.5 Z"/></g>
<g><path style="opacity:0.653" fill="#06699e" d="M 275.5,380.5 C 292.418,386.976 309.085,394.143 325.5,402C 299.981,413.591 274.315,424.924 248.5,436C 247.167,436.667 245.833,436.667 244.5,436C 225.348,427.257 206.348,418.257 187.5,409C 219.629,407.789 248.962,398.289 275.5,380.5 Z M 275.5,382.5 C 250.426,399.136 222.759,408.302 192.5,410C 210.742,418.372 228.909,426.872 247,435.5C 272.21,424.479 297.377,413.312 322.5,402C 307.03,394.929 291.364,388.429 275.5,382.5 Z"/></g>
<g><path style="opacity:0.649" fill="#06699e" d="M 578.5,368.5 C 608.705,379.512 638.705,391.012 668.5,403C 645.833,414.667 623.167,426.333 600.5,438C 598.833,438.667 597.167,438.667 595.5,438C 566.325,426.24 537.325,414.24 508.5,402C 532.046,391.058 555.379,379.892 578.5,368.5 Z M 577.5,370.5 C 555.713,381.225 533.713,391.725 511.5,402C 540.405,413.704 569.239,425.537 598,437.5C 620.578,426.128 643.078,414.628 665.5,403C 636.306,391.659 606.973,380.826 577.5,370.5 Z"/></g>
<g><path style="opacity:0.578" fill="#07699e" d="M 91.5,369.5 C 96.4106,370.116 101.077,371.616 105.5,374C 125.052,383.277 144.386,392.777 163.5,402.5C 133.787,415.234 103.787,427.067 73.5,438C 50.8333,426.333 28.1667,414.667 5.5,403C 34.3054,391.904 62.972,380.737 91.5,369.5 Z M 93.5,370.5 C 65.6995,381.556 37.6995,392.389 9.5,403C 30.3423,414.255 51.3423,425.255 72.5,436C 74.1667,436.667 75.8333,436.667 77.5,436C 105.247,424.862 132.914,413.529 160.5,402C 138.355,391.012 116.022,380.512 93.5,370.5 Z"/></g>
<g><path style="opacity:0.688" fill="#08699e" d="M 120.5,358.5 C 121.822,358.33 122.989,358.663 124,359.5C 128.775,370.056 135.275,379.389 143.5,387.5C 143.167,387.833 142.833,388.167 142.5,388.5C 128.013,381.756 113.68,374.756 99.5,367.5C 106.673,364.672 113.673,361.672 120.5,358.5 Z M 137.5,383.5 C 131.905,375.962 126.571,368.295 121.5,360.5C 115.133,362.901 108.799,365.401 102.5,368C 114.149,373.269 125.816,378.436 137.5,383.5 Z"/></g>
<g><path style="opacity:0.637" fill="#07699e" d="M 418.5,370.5 C 445.6,380.049 472.267,390.715 498.5,402.5C 474.768,414.366 450.768,425.699 426.5,436.5C 400.18,425.668 374.18,414.335 348.5,402.5C 349.09,401.201 350.09,400.368 351.5,400C 374.059,390.434 396.392,380.601 418.5,370.5 Z M 419.5,371.5 C 397.042,381.891 374.375,392.058 351.5,402C 376.47,413.15 401.47,424.316 426.5,435.5C 449.5,424.667 472.5,413.833 495.5,403C 470.293,392.208 444.96,381.708 419.5,371.5 Z"/></g>
<g><path style="opacity:0.61" fill="#07699e" d="M 340.5,338.5 C 363.856,346.785 386.856,355.952 409.5,366C 386.73,376.385 363.73,386.219 340.5,395.5C 340.5,376.5 340.5,357.5 340.5,338.5 Z M 342.5,340.5 C 342.333,358.17 342.5,375.836 343,393.5C 364.21,384.48 385.376,375.313 406.5,366C 385.258,357.21 363.925,348.71 342.5,340.5 Z"/></g>
<g><path style="opacity:0.559" fill="#07699e" d="M 493.5,337.5 C 496.271,337.421 498.937,337.921 501.5,339C 523.28,347.889 545.28,356.222 567.5,364C 569.847,364.712 571.847,365.879 573.5,367.5C 550.986,378.59 528.319,389.423 505.5,400C 478.42,390.802 451.754,380.302 425.5,368.5C 448.226,358.134 470.893,347.801 493.5,337.5 Z M 495.5,338.5 C 473.491,348.832 451.158,358.666 428.5,368C 453.248,378.705 478.248,388.871 503.5,398.5C 526.1,388.533 548.434,378.033 570.5,367C 545.432,357.59 520.432,348.09 495.5,338.5 Z"/></g>
<g><path style="opacity:0.909" fill="#06689d" d="M 330.5,337.5 C 331.832,346.809 332.499,356.476 332.5,366.5C 332.167,376.167 331.833,385.833 331.5,395.5C 316.018,388.924 300.685,382.091 285.5,375C 291,370.833 296.5,366.667 302,362.5C 302.197,357.914 302.697,353.414 303.5,349C 312.724,345.434 321.724,341.601 330.5,337.5 Z M 330.5,339.5 C 321.934,343.142 313.267,346.808 304.5,350.5C 303.985,354.453 303.819,358.453 304,362.5C 299.108,367.027 293.941,371.193 288.5,375C 302.617,380.892 316.617,387.059 330.5,393.5C 331.827,375.338 331.827,357.338 330.5,339.5 Z"/></g>
<g><path style="opacity:0.635" fill="#06689e" d="M 300.5,323.5 C 301.601,322.402 302.934,322.235 304.5,323C 313.481,326.373 322.148,330.206 330.5,334.5C 321.367,338.599 312.201,342.599 303,346.5C 301.866,338.82 301.033,331.154 300.5,323.5 Z M 302.5,324.5 C 302.548,331.197 303.048,337.864 304,344.5C 311.908,341.129 319.741,337.629 327.5,334C 319.17,330.725 310.837,327.558 302.5,324.5 Z"/></g>
<g><path style="opacity:0.658" fill="#07699e" d="M 443.5,317.5 C 457.491,322.052 471.158,327.385 484.5,333.5C 462.325,343.617 439.992,353.45 417.5,363C 415.167,363.667 412.833,363.667 410.5,363C 387.45,353.595 364.45,344.095 341.5,334.5C 351.902,329.301 362.569,324.634 373.5,320.5C 382.676,325.585 392.509,327.919 403,327.5C 417.446,327.612 430.946,324.279 443.5,317.5 Z M 443.5,319.5 C 438.236,322.413 432.569,324.58 426.5,326C 408.565,331.089 391.065,329.923 374,322.5C 364.34,325.942 354.84,329.775 345.5,334C 368.131,343.896 390.965,353.396 414,362.5C 436.408,353.311 458.574,343.645 480.5,333.5C 468.476,328.047 456.143,323.38 443.5,319.5 Z"/></g>
<g><path style="opacity:0.704" fill="#07699e" d="M 260.5,305.5 C 267.596,308.034 274.596,310.867 281.5,314C 262.443,328.431 241.109,333.764 217.5,330C 214.554,329.194 211.888,327.861 209.5,326C 226.559,319.131 243.559,312.298 260.5,305.5 Z M 260.5,307.5 C 244.699,313.889 228.699,320.056 212.5,326C 215.089,327.197 217.756,328.197 220.5,329C 241.881,331.985 261.214,326.985 278.5,314C 272.576,311.534 266.576,309.368 260.5,307.5 Z"/></g>
<g><path style="opacity:0.575" fill="#08699e" d="M 329.5,279.5 C 330.5,279.5 331.5,279.5 332.5,279.5C 332.5,296.5 332.5,313.5 332.5,330.5C 322.045,326.902 311.712,322.902 301.5,318.5C 300.777,311.814 299.943,305.147 299,298.5C 295.234,304.104 290.4,308.437 284.5,311.5C 278.716,309.441 273.049,307.107 267.5,304.5C 267.709,303.914 268.043,303.414 268.5,303C 289.05,295.433 309.383,287.6 329.5,279.5 Z M 328.5,281.5 C 309.384,289.266 290.051,296.766 270.5,304C 275.408,306.038 280.241,308.205 285,310.5C 290.07,306.553 294.57,302.053 298.5,297C 299.448,296.517 300.448,296.351 301.5,296.5C 301.334,303.175 301.5,309.842 302,316.5C 311.566,321.201 321.4,325.201 331.5,328.5C 331.5,312.833 331.5,297.167 331.5,281.5C 330.5,281.5 329.5,281.5 328.5,281.5 Z"/></g>
<g><path style="opacity:0.399" fill="#07699e" d="M 340.5,278.5 C 341.496,278.414 342.329,278.748 343,279.5C 347.866,295.244 356.7,308.244 369.5,318.5C 360.155,323.282 350.488,327.282 340.5,330.5C 340.5,313.167 340.5,295.833 340.5,278.5 Z M 342.5,284.5 C 342.333,299.17 342.5,313.837 343,328.5C 351.232,325.199 359.398,321.699 367.5,318C 355.871,309.217 347.538,298.05 342.5,284.5 Z"/></g>
<g><path style="opacity:0.665" fill="#06699e" d="M 340.5,485.5 C 341.873,485.343 343.207,485.51 344.5,486C 372.531,499.349 400.531,512.683 428.5,526C 399.538,541.647 370.205,556.481 340.5,570.5C 340.5,542.167 340.5,513.833 340.5,485.5 Z M 342.5,487.5 C 342.167,514.508 342.5,541.508 343.5,568.5C 370.709,554.132 398.043,539.965 425.5,526C 398.052,512.608 370.385,499.775 342.5,487.5 Z"/></g>
</svg>
