<?xml version="1.0" encoding="UTF-8"?>
<svg version="1.1" xmlns="http://www.w3.org/2000/svg" width="1240" height="1055">
<path d="M0 0 C409.2 0 818.4 0 1240 0 C1240 348.15 1240 696.3 1240 1055 C830.8 1055 421.6 1055 0 1055 C0 706.85 0 358.7 0 0 Z " fill="#000101" transform="translate(0,0)"/>
<path d="M0 0 C1.27636322 -0.00012085 2.55272644 -0.0002417 3.86776733 -0.00036621 C24.51987148 0.02742566 44.61799055 1.06150681 65 4.375 C66.42747559 4.5913208 66.42747559 4.5913208 67.88378906 4.81201172 C73.98627984 5.74884739 79.98651542 6.98090001 86 8.375 C86.62308044 8.51873047 87.24616089 8.66246094 87.88812256 8.81054688 C173.06303093 28.5218676 248.9182843 70.09476931 317 124.375 C317.94359375 125.12265625 318.8871875 125.8703125 319.859375 126.640625 C326.57305214 132.03485114 332.89983793 137.77608291 339.17431641 143.66699219 C341.15362348 145.51872157 343.14454036 147.35744157 345.13671875 149.1953125 C346.54968535 150.50498592 347.96244866 151.81487871 349.375 153.125 C350.02879639 153.72650879 350.68259277 154.32801758 351.35620117 154.94775391 C355.30899355 158.63125507 358.92033156 162.4795885 362.43701172 166.58056641 C364.31194259 168.73313465 366.31210957 170.71550321 368.375 172.6875 C373.33857929 177.60077274 377.66317485 182.90901806 382 188.375 C383.21236328 189.84453125 383.21236328 189.84453125 384.44921875 191.34375 C414.79425567 228.45708957 435.0751934 272.09651626 443 319.375 C443.17950195 320.41076172 443.35900391 321.44652344 443.54394531 322.51367188 C445.34460129 334.15512218 445.40275922 345.74254038 445.375 357.5 C445.37279449 358.5665683 445.37058899 359.6331366 445.36831665 360.73202515 C445.05317738 436.44830625 415.71618948 519.08137319 364.04296875 575.14453125 C362.15961002 577.20074126 360.35917369 579.30578226 358.5625 581.4375 C334.16897043 609.20519126 297.15463787 629.0200552 263 641.375 C262.1848291 641.67341797 261.3696582 641.97183594 260.52978516 642.27929688 C229.89911765 653.375 229.89911765 653.375 220 653.375 C221.71159888 649.47370199 224.25945111 646.24926539 226.8125 642.875 C233.66288483 633.66783663 239.83483055 624.04881675 246 614.375 C246.87325928 613.00553223 246.87325928 613.00553223 247.76416016 611.60839844 C250.14016165 607.8797839 252.51577071 604.15100338 254.87866211 600.4140625 C257.64871517 596.03762093 260.44394425 591.68507736 263.328125 587.3828125 C263.84358887 586.60832764 264.35905273 585.83384277 264.89013672 585.03588867 C265.85089032 583.59728573 266.82071385 582.1646814 267.80126953 580.73950195 C270.17200857 577.17618476 271.61593918 574.71154479 271 570.375 C269.35 570.045 267.7 569.715 266 569.375 C265.59056152 570.4724353 265.59056152 570.4724353 265.17285156 571.59204102 C264.05479924 574.24497158 262.79134356 576.48677555 261.234375 578.90234375 C260.68128662 579.76561279 260.12819824 580.62888184 259.55834961 581.51831055 C258.96159424 582.44039307 258.36483887 583.36247559 257.75 584.3125 C256.47502804 586.2967257 255.20029513 588.28110503 253.92578125 590.265625 C253.27303223 591.27947266 252.6202832 592.29332031 251.94775391 593.33789062 C250.09123208 596.23274291 248.25103063 599.13712405 246.41796875 602.046875 C232.59827653 623.97169786 218.07532674 644.85687043 201 664.375 C200.38334473 665.08068115 199.76668945 665.7863623 199.13134766 666.51342773 C193.11545794 673.30042634 186.80080573 679.76038695 180.38964844 686.1706543 C178.62924948 687.93324523 176.87703618 689.70371039 175.125 691.47460938 C168.38887587 698.24381058 161.48726031 704.43680131 154 710.375 C152.86233727 711.34418189 151.73086789 712.32074572 150.609375 713.30859375 C137.4617503 724.82174598 121.93074021 737.8706804 103.6875 737.65234375 C98.56462043 737.12367449 95.98042967 734.33151675 92.4375 730.875 C81.37196011 716.47561155 79.90553317 693.64902781 79.79467773 676.08178711 C79.77982834 674.60214981 79.77982834 674.60214981 79.76467896 673.09262085 C79.73332791 669.86255211 79.70841193 666.63246872 79.68359375 663.40234375 C79.66300137 661.15075824 79.64200433 658.8991764 79.62062073 656.64759827 C79.56563579 650.74418116 79.51612327 644.84073054 79.46777344 638.93725586 C79.41738542 632.90410406 79.36178998 626.87100045 79.30664062 620.83789062 C79.19934777 609.01696833 79.09783961 597.19600405 79 585.375 C77.35 585.705 75.7 586.035 74 586.375 C73.67 614.095 73.34 641.815 73 670.375 C47.21572676 671.53059768 21.49602475 672.58060561 -4.3125 672.625 C-5.76325424 672.63249268 -5.76325424 672.63249268 -7.24331665 672.64013672 C-27.23686273 672.72531441 -46.9843241 671.42845663 -67 670.375 C-67.495 627.805 -67.495 627.805 -68 584.375 C-69.65 584.705 -71.3 585.035 -73 585.375 C-73.01213028 587.17213188 -73.01213028 587.17213188 -73.02450562 589.00556946 C-73.10247116 600.37531968 -73.19033092 611.7449576 -73.28752708 623.11456013 C-73.33717094 628.95777899 -73.38349989 634.80098251 -73.421875 640.64428711 C-73.45913578 646.29838293 -73.50559771 651.95233927 -73.55806351 657.60631371 C-73.57639344 659.74809474 -73.59157745 661.88990541 -73.60334396 664.03173256 C-73.90744278 717.54293896 -73.90744278 717.54293896 -86.9921875 731.5 C-92.30235088 736.32388469 -96.43929807 737.98794039 -103.6484375 737.90234375 C-120.13966708 735.30756987 -135.26592989 721.1703029 -147.35546875 710.52734375 C-149.32669063 708.79321041 -151.32003848 707.12096781 -153.37695312 705.48828125 C-160.84158194 699.56032694 -167.58715731 693.0954532 -174.29833984 686.33740234 C-176.12248747 684.50252731 -177.95709873 682.67860668 -179.79296875 680.85546875 C-186.65692597 673.99921304 -192.9760244 666.98759361 -199 659.375 C-199.93444128 658.27288496 -200.87582936 657.17656868 -201.828125 656.08984375 C-217.02774714 638.65930932 -229.48685277 619.07463537 -241.75390625 599.52734375 C-244.09636672 595.79848454 -246.46202354 592.08531645 -248.83984375 588.37890625 C-249.48018555 587.37931885 -250.12052734 586.37973145 -250.78027344 585.34985352 C-252.03233344 583.39691558 -253.28681419 581.44552707 -254.54394531 579.49584961 C-255.11081055 578.61034424 -255.67767578 577.72483887 -256.26171875 576.8125 C-257.01908325 575.63494141 -257.01908325 575.63494141 -257.79174805 574.43359375 C-259 572.375 -259 572.375 -260 569.375 C-261.65 569.705 -263.3 570.035 -265 570.375 C-264.48104186 574.95906022 -263.35211907 577.91849381 -260.82421875 581.76171875 C-260.16679687 582.77339111 -259.509375 583.78506348 -258.83203125 584.82739258 C-257.77048828 586.42877075 -257.77048828 586.42877075 -256.6875 588.0625 C-255.95724153 589.17986989 -255.22808517 590.29796081 -254.5 591.41674805 C-253.03268833 593.67048076 -251.56131035 595.92147524 -250.08740234 598.17089844 C-247.17309058 602.64428178 -244.33425882 607.16316769 -241.5 611.6875 C-234.28343815 623.12943172 -226.74339035 634.2059712 -218.65869141 645.0546875 C-218.0713623 645.84359375 -217.4840332 646.6325 -216.87890625 647.4453125 C-216.3485376 648.15445801 -215.81816895 648.86360352 -215.27172852 649.59423828 C-214 651.375 -214 651.375 -213 653.375 C-260.82151811 646.82307547 -308.46780864 621.95544554 -343.76953125 589.41796875 C-345.82574126 587.53461002 -347.93078226 585.73417369 -350.0625 583.9375 C-373.68866577 563.18224282 -390.49758003 533.2824053 -404.06787109 505.28808594 C-404.94403201 503.48986778 -405.84048815 501.70157866 -406.73828125 499.9140625 C-421.26377732 470.19523146 -429.97744644 436.78637574 -436 404.375 C-436.17789063 403.46073242 -436.35578125 402.54646484 -436.5390625 401.60449219 C-446.57407728 348.34325305 -435.56186797 292.85520271 -413 244.375 C-412.69046387 243.7037207 -412.38092773 243.03244141 -412.06201172 242.34082031 C-403.04919292 223.17234689 -389.60887093 204.5394299 -376 188.375 C-375.53996582 187.82166992 -375.07993164 187.26833984 -374.60595703 186.69824219 C-362.50058456 172.15217151 -349.6771151 157.70724003 -335.2890625 145.3828125 C-332.92015381 143.30496426 -330.61727411 141.16826825 -328.31567383 139.01660156 C-322.41631209 133.5065551 -316.38316492 128.32385256 -310 123.375 C-308.4840625 122.16650391 -308.4840625 122.16650391 -306.9375 120.93359375 C-256.09321647 80.4083716 -198.56919575 45.77822598 -137 24.375 C-135.7625 23.93945801 -134.525 23.50391602 -133.25 23.05517578 C-105.23798832 13.24763786 -76.45274962 6.22797573 -47 2.375 C-46.3391188 2.28550079 -45.67823761 2.19600159 -44.99732971 2.10379028 C-30.02088311 0.12180464 -15.08883087 -0.02195218 0 0 Z " fill="#ABD1E5" transform="translate(617,269.625)"/>
<path d="M0 0 C1.68585205 -0.02114868 1.68585205 -0.02114868 3.40576172 -0.04272461 C25.1466428 0.08251453 44.84574875 8.66173971 61.4375 22.375 C62.29021484 23.00921875 62.29021484 23.00921875 63.16015625 23.65625 C80.10532629 36.7957672 90.9458523 60.51446584 94.15625 81.3203125 C96.58704526 107.72144994 89.87824922 133.57264034 73 154.33984375 C57.30799104 172.9262629 34.84241106 185.79497704 10.4375 188.375 C-19.56868787 189.99277535 -43.89874486 181.64790744 -66.453125 161.703125 C-83.30833913 145.75900352 -93.42859962 122.67204098 -94.13212585 99.64045715 C-94.37298943 87.21072436 -94.27857902 75.046246 -89.5625 63.375 C-89.32644043 62.74174805 -89.09038086 62.10849609 -88.84716797 61.45605469 C-80.16801054 38.23329303 -62.82494295 18.9306589 -40.32421875 8.30859375 C-26.95006622 2.34280647 -14.60142089 0.13393068 0 0 Z " fill="#010102" transform="translate(398.5625,570.625)"/>
<path d="M0 0 C17.01453369 14.51168856 26.83828528 34.04402193 31.13671875 55.73046875 C31.32621094 56.67277344 31.51570312 57.61507812 31.7109375 58.5859375 C34.99790407 82.86124106 28.6801693 107.9512293 14.1809082 127.70874023 C-1.55162046 148.15896865 -22.74618111 160.00816899 -47.75390625 165.34765625 C-59.25087544 166.76311226 -71.60608176 166.42847524 -82.86328125 163.73046875 C-83.94351563 163.48554687 -85.02375 163.240625 -86.13671875 162.98828125 C-110.79127243 156.72768672 -130.73073298 141.02779655 -143.828125 119.32421875 C-156.26442939 97.82908507 -160.22022496 70.94204681 -153.90893555 46.74926758 C-146.14996379 20.97873962 -129.52072647 0.55310409 -106.03857422 -12.265625 C-70.71690364 -30.98357334 -30.51017979 -24.18337579 0 0 Z " fill="#010101" transform="translate(903.86328125,593.26953125)"/>
<path d="M0 0 C-0.36692149 11.5580268 -6.5401617 18.29710835 -14.69921875 26.046875 C-30.4930139 40.48525063 -49.06437249 51.46574907 -67.53930664 62.05444336 C-82.45300947 70.16413164 -82.45300947 70.16413164 -93 83 C-94.82339603 95.38595144 -90.78304372 105.12159838 -83.68359375 115.00390625 C-81.97468475 117.21793664 -81.97468475 117.21793664 -79 119 C-64.23746654 119.90445428 -51.1545118 112.30065459 -38.30371094 105.95483398 C-31.12179775 102.43152729 -23.92551375 99.19248214 -16.4375 96.375 C-15.62450439 96.06908936 -14.81150879 95.76317871 -13.97387695 95.44799805 C-5.25627052 92.25386415 2.62046711 89.4044741 12 90 C13 91 13 91 13.4375 93.5 C12.28907495 102.68740039 3.98406076 109.85831379 -2.9375 115.31640625 C-11.78559874 122.01451164 -21.05419474 128.1080979 -30.34741211 134.16577148 C-44.06611054 142.67067465 -44.06611054 142.67067465 -54 155 C-55.04610323 162.77105259 -53.43736586 168.60065833 -49 175 C-40.92974263 185.57246787 -40.92974263 185.57246787 -29.59765625 191.43359375 C-16.47665224 191.45381101 -5.16310862 186.53673513 6.1875 180.375 C7.36551925 179.74861604 8.54424207 179.12355366 9.72363281 178.49975586 C13.15652228 176.68027327 16.57825059 174.84035046 20 173 C51.13573194 156.40176986 51.13573194 156.40176986 66 152 C66.680625 151.77441406 67.36125 151.54882812 68.0625 151.31640625 C74.56325501 149.35263651 82.74592605 148.35202541 89.16796875 150.83984375 C92.301795 153.05064279 92.99693575 154.98356447 93.6875 158.6875 C92.96308477 167.42987475 87.25978786 175.22173429 81 181 C70.06306099 190.23757399 57.71375032 196.69434287 45.10644531 203.3515625 C11.21279844 218.95332836 11.21279844 218.95332836 -12 245 C-12.63020959 250.46181646 -11.31181965 255.06838773 -9.75390625 260.25390625 C-8.96672055 263.12121996 -8.4888251 266.0670494 -8 269 C-11.96 270.98 -15.92 272.96 -20 275 C-27.0427499 266.79935119 -33.87081802 258.4702989 -40.49609375 249.92919922 C-42.09108576 247.8831559 -43.70073533 245.8492584 -45.3125 243.81640625 C-53.98363488 232.83923536 -62.11050399 221.54992676 -70 210 C-70.4532666 209.33935547 -70.9065332 208.67871094 -71.37353516 207.99804688 C-83.13249255 190.81361587 -93.79010947 172.89748427 -104.2890625 154.92480469 C-105.45221849 152.93641874 -106.61902202 150.95016298 -107.7890625 148.96582031 C-150.16406617 77.08609335 -150.16406617 77.08609335 -147.5546875 63.71875 C-147.37164062 63.1515625 -147.18859375 62.584375 -147 62 C-146.34 62 -145.68 62 -145 62 C-144.11274427 60.90090812 -143.26682829 59.76843355 -142.4375 58.625 C-130.42913541 44.78770613 -108.131992 37.22499752 -91.98291016 29.02734375 C-88.47287558 27.2441896 -84.97545345 25.43749874 -81.48046875 23.625 C-16.21541516 -9.97871702 -16.21541516 -9.97871702 0 0 Z " fill="#006398" transform="translate(407,55)"/>
<path d="M0 0 C0.88768066 0.25885986 1.77536133 0.51771973 2.68994141 0.78442383 C29.73096455 9.05067148 55.45719259 22.15553923 80.30957031 35.45556641 C82.93380727 36.84749361 85.57055017 38.21318957 88.2109375 39.57421875 C113.87792341 52.81566081 113.87792341 52.81566081 120.3125 61.1484375 C121.76177425 63.02880165 121.76177425 63.02880165 124.75 63.75 C122.08745695 90.00324701 103.82734374 117.4252586 90.75 139.75 C89.73652485 141.49446579 88.72307075 143.23894395 87.71031189 144.98382568 C83.42658272 152.3609181 79.1043523 159.71477736 74.75518799 167.0534668 C73.80295172 168.6606293 72.85235512 170.26876296 71.90185547 171.87695312 C62.78560159 187.25474784 52.96502025 202.08139074 42.75 216.75 C42.2338916 217.49169434 41.7177832 218.23338867 41.18603516 218.99755859 C32.82965822 230.9592247 23.89781471 242.42066744 14.65942383 253.70703125 C11.92960203 257.04640134 9.22681434 260.40132094 6.58203125 263.80859375 C6.0830835 264.45127197 5.58413574 265.0939502 5.07006836 265.75610352 C4.13070602 266.97097405 3.19510239 268.18876349 2.26391602 269.40991211 C0.21625139 272.0582355 -1.43381222 273.87254148 -4.25 275.75 C-5.90206447 274.82352464 -7.5464997 273.88343426 -9.1875 272.9375 C-10.10402344 272.41542969 -11.02054688 271.89335937 -11.96484375 271.35546875 C-14.25 269.75 -14.25 269.75 -15.25 266.75 C-14.68100339 264.68560025 -14.02181998 262.64548723 -13.3125 260.625 C-11.03713638 253.48971338 -9.89145244 248.26987322 -12.625 241.1875 C-24.27318636 223.77485281 -52.98684053 212.28111485 -70.9765625 202.6796875 C-110.22895568 181.72236346 -110.22895568 181.72236346 -116.25 163.75 C-116.90634121 159.30146514 -116.82948709 157.63854687 -114.375 153.875 C-111.17260764 150.67260764 -109.19241097 150.52083672 -104.75 150.375 C-80.66553099 150.66581137 -58.34352323 165.07641712 -37.796875 176.2109375 C-15.84704226 189.05235778 -15.84704226 189.05235778 8.75 191.75 C12.08478357 190.44429549 12.08478357 190.44429549 14.75 187.75 C15.45769531 187.10546875 16.16539062 186.4609375 16.89453125 185.796875 C22.92447756 180.07692593 30.25046535 172.95575734 30.953125 164.2265625 C31.10578393 157.01189377 31.10578393 157.01189377 27.75 150.75 C27.75 150.09 27.75 149.43 27.75 148.75 C27.20093994 148.50330566 26.65187988 148.25661133 26.08618164 148.00244141 C23.27216224 146.49382822 20.89826061 144.66356151 18.37109375 142.7109375 C13.9769132 139.35932194 9.50859925 136.16682667 4.91015625 133.1015625 C4.3332605 132.71694351 3.75636475 132.33232452 3.1619873 131.93605042 C1.98109498 131.14986761 0.79992015 130.364109 -0.38153076 129.57876587 C-33.07151584 107.78930929 -33.07151584 107.78930929 -35.85546875 97.515625 C-36.1875 95.3125 -36.1875 95.3125 -36.25 91.75 C-35.25 90.75 -35.25 90.75 -31.74609375 90.54296875 C-27.00690417 90.6134517 -22.82173007 91.67069421 -18.3125 93.0625 C-17.45986572 93.32248779 -16.60723145 93.58247559 -15.72875977 93.8503418 C-2.28730529 98.14027034 10.50810252 104.26510035 23.2109375 110.35546875 C24.0558374 110.76047607 24.9007373 111.1654834 25.77124023 111.58276367 C27.31407779 112.32807097 28.85310184 113.08136022 30.38696289 113.8449707 C38.18535544 117.65344601 46.92942847 121.24352307 55.75 119.75 C63.44114992 115.81499306 67.43998175 105.21423512 70.0546875 97.4140625 C71.537319 91.73341823 71.55894778 86.98295206 69.1875 81.5625 C64.30699472 73.26760018 55.65132438 69.17830203 47.5 64.625 C-16.93598485 28.11362199 -16.93598485 28.11362199 -22.8671875 7.6171875 C-23.56608655 2.21660395 -23.56608655 2.21660395 -21.9375 -0.1875 C-15.2544982 -4.39531595 -7.13285856 -2.10400271 0 0 Z " fill="#006398" transform="translate(856.25,54.25)"/>
<path d="M0 0 C12.28727018 1.16772639 22.82117295 12.39579505 32 20 C33.12728516 20.92619141 33.12728516 20.92619141 34.27734375 21.87109375 C36.23684349 23.53231869 38.12430939 25.24441011 40 27 C40.46583496 27.43328613 40.93166992 27.86657227 41.41162109 28.31298828 C54.67809923 40.76192435 64.69714672 54.31067644 72 71 C72.28214355 71.64018066 72.56428711 72.28036133 72.85498047 72.93994141 C86.31667039 104.18661001 84.28037049 137.78251873 72.17529297 169.14306641 C67.38264881 180.79315405 61.47963159 191.62414719 53 201 C52.04867188 202.1446875 52.04867188 202.1446875 51.078125 203.3125 C39.34368677 217.20607486 24.1844407 225.68293188 7 231 C6.00742188 231.30808594 5.01484375 231.61617187 3.9921875 231.93359375 C-32.50554954 242.55758684 -74.11674573 231.68466363 -106.65917969 214.23242188 C-120.50885182 206.52803947 -133.81925786 197.2790505 -145 186 C-131.97534457 185.29861689 -119.40073924 187.4423413 -106.5625 189.375 C-49.60698168 198.5611114 -49.60698168 198.5611114 2.69140625 178.0546875 C5.19618758 176.10439975 7.61038268 174.08939375 10 172 C10.68707031 171.40832031 11.37414063 170.81664062 12.08203125 170.20703125 C26.79014609 156.60129977 34.27664131 136.72509082 35.3203125 117.01171875 C36.13726053 91.44479725 26.5052476 69.86613914 16.0625 47.0625 C13.01333571 40.3875768 9.98031021 33.70599477 7 27 C6.47487823 25.81890656 6.47487823 25.81890656 5.93914795 24.61395264 C4.94268614 22.3518124 3.96596626 20.08224232 2.99609375 17.80859375 C2.70549576 17.15053238 2.41489777 16.49247101 2.11549377 15.81446838 C0.10223587 11.00846324 -0.95395737 6.2341957 -1 1 C-0.67 0.67 -0.34 0.34 0 0 Z " fill="#006398" transform="translate(1091,206)"/>
<path d="M0 0 C-0.56015549 15.96443158 -10.56453873 32.07514482 -17.11108398 46.3762207 C-27.55942639 68.27702409 -27.55942639 68.27702409 -34.4375 91.4375 C-34.66759766 92.60152344 -34.66759766 92.60152344 -34.90234375 93.7890625 C-39.05540773 116.81631905 -34.53450068 138.60631036 -21.94921875 158.19140625 C-8.98031707 176.70042127 10.28566719 187.67168087 32 193 C32.6295459 193.1757959 33.2590918 193.3515918 33.90771484 193.53271484 C57.24454876 198.74469852 85.44861879 191.42500361 108.72216797 187.71411133 C118.53961501 186.15472536 128.22740476 184.8304022 138.1875 184.9375 C139.29480469 184.94652344 140.40210938 184.95554687 141.54296875 184.96484375 C142.35378906 184.97644531 143.16460937 184.98804688 144 185 C119.89649796 209.4922682 86.71253983 225.86878744 53 232 C52.05511719 232.17587646 51.11023438 232.35175293 50.13671875 232.53295898 C41.76830464 233.96745314 33.6066322 234.34930606 25.125 234.3125 C24.46735657 234.31100952 23.80971313 234.30951904 23.13214111 234.3079834 C13.38480646 234.26829387 4.38398663 233.80427026 -5 231 C-5.98613281 230.73316406 -6.97226563 230.46632813 -7.98828125 230.19140625 C-20.8273931 226.36518086 -33.15194049 220.11857362 -43 211 C-43.4738916 210.56703613 -43.9477832 210.13407227 -44.43603516 209.68798828 C-66.99303469 188.88341054 -80.60685839 158.18948038 -82.17578125 127.56933594 C-82.71931619 112.60271302 -82.81017138 98.28112994 -78 84 C-77.78569336 83.33935547 -77.57138672 82.67871094 -77.35058594 81.99804688 C-70.55333419 61.27978608 -59.08118353 44.63422028 -44 29 C-43.47156494 28.4445752 -42.94312988 27.88915039 -42.39868164 27.31689453 C-38.13459281 22.92594526 -33.58277451 19.16495283 -28.6875 15.5 C-27.94201904 14.93684082 -27.19653809 14.37368164 -26.4284668 13.79345703 C-5.75237938 -1.76243113 -5.75237938 -1.76243113 0 0 Z " fill="#006398" transform="translate(150,207)"/>
<path d="M0 0 C0.66 0 1.32 0 2 0 C5.10301678 5.9821233 8.19387165 11.97042605 11.27734375 17.96264648 C12.32192228 19.98939062 13.36901956 22.0148391 14.41894531 24.03881836 C42.42271666 78.04417202 42.42271666 78.04417202 42.375 106.5 C42.37338867 107.50667725 42.37177734 108.51335449 42.37011719 109.55053711 C42.25246395 116.65644686 41.52161344 122.70267041 38 129 C37.4225 130.0725 36.845 131.145 36.25 132.25 C26.65468537 143.97760677 13.11139794 148.21549998 -1.60244751 149.78594971 C-5.23887427 150.11060504 -8.8623509 150.2195603 -12.51171875 150.2734375 C-13.30439651 150.28610153 -14.09707428 150.29876556 -14.91377258 150.31181335 C-37.01377535 150.59427274 -58.17753404 148.95454771 -79.97961426 145.47888184 C-83.38986253 144.93818734 -86.80170896 144.40838888 -90.21386719 143.87988281 C-106.81787364 141.30680426 -123.41249085 138.67757398 -140 136 C-137.37109602 133.98426898 -135.0022959 132.42653278 -131.9375 131.16015625 C-131.15052734 130.82556396 -130.36355469 130.49097168 -129.55273438 130.14624023 C-128.71033203 129.78860596 -127.86792969 129.43097168 -127 129.0625 C-116.08002724 124.28851704 -106.04494858 118.384366 -96 112 C-95.39687988 111.61956543 -94.79375977 111.23913086 -94.17236328 110.84716797 C-83.15317866 103.85706785 -72.85035947 95.9217085 -63.26171875 87.07421875 C-61.21675333 85.19878414 -59.12380525 83.40967467 -57 81.625 C-47.444069 73.25637906 -39.63161465 63.09665679 -32 53 C-31.58250488 52.45005371 -31.16500977 51.90010742 -30.73486328 51.33349609 C-18.68725946 35.33852189 -9.09767154 17.79279125 0 0 Z " fill="#8796B2" transform="translate(1033,778)"/>
<path d="M0 0 C0.66 0 1.32 0 2 0 C2.45101074 0.89585815 2.45101074 0.89585815 2.91113281 1.80981445 C15.68620187 27.0581983 30.47459384 49.63363699 49 71 C49.60070312 71.72445312 50.20140625 72.44890625 50.8203125 73.1953125 C59.78670889 83.89434588 70.86746263 92.66984015 82 101 C82.98444092 101.73718262 82.98444092 101.73718262 83.98876953 102.48925781 C102.0555509 115.89600801 121.68210457 125.46564858 142 135 C142 135.33 142 135.66 142 136 C139.9431323 136.31319344 137.88626369 136.6263809 135.82939148 136.93954468 C133.97742776 137.22151794 132.12546868 137.50352167 130.27351379 137.78555298 C125.09217218 138.57449309 119.91070196 139.36257411 114.72900391 140.14916992 C105.25078501 141.58850446 95.77312684 143.03026178 86.30078125 144.5078125 C78.54022454 145.71708852 70.77366442 146.87754965 63 148 C62.11054688 148.13277344 61.22109375 148.26554688 60.3046875 148.40234375 C47.98580612 150.18797965 35.61162798 150.22726844 23.1875 150.3125 C22.35120056 150.32221832 21.51490112 150.33193665 20.65325928 150.34194946 C2.61064997 150.51981937 -17.14089969 149.01915483 -31 136 C-38.94381876 127.92839863 -40.40133791 116.56864052 -40.5 105.75 C-40.15470417 76.07300978 -25.14237277 48.35870449 -11.5078125 22.7578125 C-7.52303741 15.24768345 -3.7690285 7.61999241 0 0 Z " fill="#ABD1E5" transform="translate(205,778)"/>
<path d="M0 0 C0.33 0 0.66 0 1 0 C0.08244603 16.42105216 -3.56800526 32.34698373 -7.5625 48.25 C-7.77997894 49.11750885 -7.99745789 49.9850177 -8.2215271 50.8788147 C-21.05895861 101.73951233 -43.09509045 150.86091229 -78.95703125 189.76953125 C-80.84038998 191.82574126 -82.64082631 193.93078226 -84.4375 196.0625 C-108.83102957 223.83019126 -145.84536213 243.6450552 -180 256 C-180.8151709 256.29841797 -181.6303418 256.59683594 -182.47021484 256.90429688 C-213.10088235 268 -213.10088235 268 -223 268 C-221.28840112 264.09870199 -218.74054889 260.87426539 -216.1875 257.5 C-209.33711517 248.29283663 -203.16516945 238.67381675 -197 229 C-196.41782715 228.08702148 -195.8356543 227.17404297 -195.23583984 226.23339844 C-192.85975832 222.50465831 -190.48547677 218.77479993 -188.11694336 215.04125977 C-183.91651485 208.42216976 -179.67220975 201.83300369 -175.37451172 195.27661133 C-173.40614069 192.25720158 -171.49988707 189.28308615 -170 186 C-170 186.99 -170 187.98 -170 189 C-156.18133508 183.14463351 -144.75816664 176.29222222 -133.19726562 166.76708984 C-129.59001195 163.86605627 -125.8316731 161.18517696 -122.0625 158.5 C-120.57013077 157.4299409 -119.0779443 156.35962688 -117.5859375 155.2890625 C-116.83795898 154.75313477 -116.08998047 154.21720703 -115.31933594 153.66503906 C-103.50637223 145.18457459 -91.91153826 136.62108038 -81 127 C-80.00871094 126.16597656 -79.01742187 125.33195313 -77.99609375 124.47265625 C-69.96959686 117.51356833 -63.72603685 109.62827505 -57.49462891 101.04882812 C-56.16698683 99.22890452 -54.81529341 97.43173676 -53.44921875 95.640625 C-45.98150809 85.61849285 -39.89241493 74.80324309 -33.69873047 63.96386719 C-32.1263402 61.2204326 -30.5385275 58.48690456 -28.94140625 55.7578125 C-26.26709589 51.18722272 -23.61878032 46.60263915 -21 42 C-20.65308105 41.39027344 -20.30616211 40.78054688 -19.94873047 40.15234375 C-14.3607225 30.23536285 -9.6534261 19.9287755 -4.94750977 9.57006836 C-4.20198853 7.93050171 -4.20198853 7.93050171 -3.44140625 6.2578125 C-2.99482666 5.2692627 -2.54824707 4.28071289 -2.08813477 3.26220703 C-1 1 -1 1 0 0 Z " fill="#8796B2" transform="translate(1060,655)"/>
<path d="M0 0 C2.2268565 1.6855 4.34282912 3.4486851 6.453125 5.27734375 C7.57460938 6.18419922 7.57460938 6.18419922 8.71875 7.109375 C19.45372206 16.07344181 25.91642925 27.65035286 31.453125 40.27734375 C31.91203125 41.30601562 32.3709375 42.3346875 32.84375 43.39453125 C39.11533762 60.75181247 37.57705582 83.41436827 30.453125 100.27734375 C30.19611816 100.89593262 29.93911133 101.51452148 29.67431641 102.15185547 C25.91558883 110.99605609 20.90840652 118.2083173 14.453125 125.27734375 C13.76605469 126.05722656 13.07898438 126.83710937 12.37109375 127.640625 C-1.00786624 142.01245771 -20.96385717 151.17316032 -40.546875 152.27734375 C-41.68511719 152.34179688 -42.82335937 152.40625 -43.99609375 152.47265625 C-57.56054039 152.87121981 -70.36079613 150.48116572 -82.546875 144.27734375 C-79.546875 143.27734375 -79.546875 143.27734375 -75.921875 144.21484375 C-60.13299574 147.93138189 -43.61807711 144.73870458 -29.4609375 137.1640625 C-15.27059318 127.97648032 -5.47012744 114.47531194 -1.43359375 98.015625 C1.20464485 85.48955615 0.44416639 72.05870477 -4.546875 60.27734375 C-4.94777344 59.27574219 -5.34867188 58.27414062 -5.76171875 57.2421875 C-11.49400653 44.36530914 -22.35217926 33.00668456 -35.44238281 27.4765625 C-53.46001691 20.57054059 -71.17420858 19.91513132 -88.953125 27.78515625 C-104.29967748 35.49428892 -115.1069252 47.78153839 -120.83984375 64.01171875 C-121.07316406 64.759375 -121.30648437 65.50703125 -121.546875 66.27734375 C-121.76988281 66.9425 -121.99289062 67.60765625 -122.22265625 68.29296875 C-125.14396142 78.70632866 -124.64270785 91.01997477 -121.10546875 101.17578125 C-120.546875 103.27734375 -120.546875 103.27734375 -121.546875 106.27734375 C-130.16424687 85.7727672 -133.88708321 62.57298773 -125.546875 41.27734375 C-115.89693919 18.42839066 -100.24234967 1.11970714 -77.28125 -8.73046875 C-72.46867073 -10.47674751 -67.54971185 -11.66188282 -62.546875 -12.72265625 C-61.76642822 -12.89394043 -60.98598145 -13.06522461 -60.18188477 -13.24169922 C-39.24893022 -17.06250163 -17.48786673 -11.82844973 0 0 Z " fill="#FCFCFC" transform="translate(888.546875,595.72265625)"/>
<path d="M0 0 C0.90234375 0.41894531 1.8046875 0.83789062 2.734375 1.26953125 C22.9359912 11.39953244 35.14587174 28.96148908 43.3828125 49.4375 C49.19219413 67.31252039 47.65086484 88.5766076 41 106 C39.33203125 108.5078125 39.33203125 108.5078125 38 110 C38.2165625 108.515 38.2165625 108.515 38.4375 107 C38.57285156 106.03513672 38.57285156 106.03513672 38.7109375 105.05078125 C38.98658419 103.09517973 39.27423713 101.1412817 39.5625 99.1875 C41.60961393 81.95212139 37.89601433 65.92730161 27.8125 51.6875 C18.16379292 39.5903731 4.96564191 31.14556338 -10.3984375 28.390625 C-28.51524023 26.42567893 -44.74679084 29.27103868 -59.6875 40.25 C-71.99249771 50.46337061 -80.94147222 63.88413835 -83 80 C-84.34109558 98.29549664 -81.38283364 115.55499776 -69.08813477 129.89624023 C-58.85473728 141.15708011 -45.25736263 149.77957787 -29.77490234 151.20483398 C-27.42916851 151.30309378 -25.09770033 151.32803028 -22.75 151.3125 C-21.92097168 151.31048584 -21.09194336 151.30847168 -20.23779297 151.30639648 C-13.48416935 151.19674695 -7.45044075 149.98871416 -1 148 C0.66274909 147.64764458 2.32856346 147.30852682 4 147 C-8.10611802 157.15732829 -28.56161803 159.1048167 -43.72851562 158.20263672 C-62.4252706 156.53471898 -78.96595732 148.14407132 -93 136 C-93.67289062 135.42765625 -94.34578125 134.8553125 -95.0390625 134.265625 C-109.49655525 120.93040338 -118.37483139 100.64711974 -119.3828125 81.20703125 C-119.85785853 64.8871939 -117.7578224 50.58561347 -110 36 C-109.33871094 34.74123047 -109.33871094 34.74123047 -108.6640625 33.45703125 C-104.94563289 26.83165253 -100.23765613 21.46859334 -95 16 C-94.42378906 15.360625 -93.84757812 14.72125 -93.25390625 14.0625 C-69.76049307 -11.17742591 -29.81149541 -14.21340423 0 0 Z " fill="#FCFCFC" transform="translate(435,590)"/>
<path d="M0 0 C2.64414665 3.24427881 4.35200358 6.63110797 6.140625 10.40625 C9.7638104 17.84273749 14.10462542 24.66412457 18.75 31.5 C19.342435 32.37958878 19.342435 32.37958878 19.94683838 33.27694702 C25.93123043 42.16055256 32.09616793 50.80366969 39 59 C39.47066895 59.56396484 39.94133789 60.12792969 40.42626953 60.70898438 C43.89339019 64.85720771 47.42158883 68.94748123 51 73 C51.72872314 73.82564453 51.72872314 73.82564453 52.47216797 74.66796875 C64.16576617 87.82668533 76.95628595 99.40460531 91 110 C91.58861816 110.45084961 92.17723633 110.90169922 92.78369141 111.36621094 C102.75298542 118.99408782 113.15873848 125.6805638 124 132 C124.73089844 132.42667969 125.46179688 132.85335937 126.21484375 133.29296875 C134.96850278 138.36416159 143.88992187 143.03889009 153 147.4375 C153.84796143 147.8507251 154.69592285 148.2639502 155.56958008 148.68969727 C159.7988296 150.69394155 163.74673055 152.22501354 168.3046875 153.30859375 C172.8770436 154.62026945 174.65767318 156.29815579 176.97607422 160.39282227 C177.35521973 161.12944092 177.73436523 161.86605957 178.125 162.625 C179.04323442 164.25336038 179.96534315 165.87954007 180.890625 167.50390625 C181.38240234 168.38449707 181.87417969 169.26508789 182.38085938 170.17236328 C185.37808368 175.4066594 188.6276351 180.48090752 191.875 185.5625 C192.55216064 186.6251709 193.22932129 187.6878418 193.92700195 188.78271484 C199.04838976 196.72975916 204.5439813 204.27506598 210.42578125 211.671875 C212.52822815 214.32680616 214.34377026 217.03800551 216 220 C168.17848189 213.44807547 120.53219136 188.58044554 85.23046875 156.04296875 C83.17425874 154.15961002 81.06921774 152.35917369 78.9375 150.5625 C55.31133423 129.80724282 38.50241997 99.9074053 24.93212891 71.91308594 C24.05596799 70.11486778 23.15951185 68.32657866 22.26171875 66.5390625 C13.12561735 47.84680906 0 20.87003804 0 0 Z " fill="#8796B2" transform="translate(188,703)"/>
<path d="M0 0 C0 20.13 0 40.26 0 61 C-46.84231179 63.09937532 -93.19034581 63.96029434 -140 61 C-140 41.2 -140 21.4 -140 1 C-134.39 1.66 -128.78 2.32 -123 3 C-117.8025664 3.24995095 -112.63621473 3.45380683 -107.4375 3.5625 C-99.62202338 3.74924499 -91.8276691 3.97909728 -84.02734375 4.51171875 C-76.0618465 5.04513851 -68.10890108 5.23977079 -60.125 5.25 C-59.42154449 5.25167175 -58.71808899 5.25334351 -57.99331665 5.25506592 C-41.01541086 5.25745378 -24.4065145 3.38555522 -7.70239258 0.38037109 C-5 0 -5 0 0 0 Z " fill="#8796B2" transform="translate(690,879)"/>
<path d="M0 0 C0.30760254 0.62003906 0.61520508 1.24007812 0.93212891 1.87890625 C8.62638772 17.16187849 20.4710855 26.61705654 36 33 C50.13776696 37.10977518 65.57085267 33.63905418 78.4140625 27.3203125 C81.3786958 25.66512021 84.1950563 23.91148537 87 22 C87.68707031 21.53980469 88.37414062 21.07960938 89.08203125 20.60546875 C94.45750485 16.54165756 97.09359368 10.95678324 100 5 C100.66666667 3.66666667 101.33333333 2.33333333 102 1 C102.50144531 1.48726562 103.00289063 1.97453125 103.51953125 2.4765625 C125.86484195 23.41339536 152.52081271 37.17027532 180 50 C180 50.33 180 50.66 180 51 C177.9431323 51.31319344 175.88626369 51.6263809 173.82939148 51.93954468 C171.97742776 52.22151794 170.12546868 52.50352167 168.27351379 52.78555298 C163.09217218 53.57449309 157.91070196 54.36257411 152.72900391 55.14916992 C143.25078501 56.58850446 133.77312684 58.03026178 124.30078125 59.5078125 C116.54022454 60.71708852 108.77366442 61.87754965 101 63 C99.66582031 63.19916016 99.66582031 63.19916016 98.3046875 63.40234375 C85.98580612 65.18797965 73.61162798 65.22726844 61.1875 65.3125 C60.35120056 65.32221832 59.51490112 65.33193665 58.65325928 65.34194946 C40.61064997 65.51981937 20.85910031 64.01915483 7 51 C-1.87124275 41.98605629 -2.35692621 29.56800056 -2.38012695 17.68701172 C-2.27581723 11.61169086 -1.37479891 5.91290097 0 0 Z " fill="#8796B2" transform="translate(167,863)"/>
<path d="M0 0 C2.9507682 3.22077781 4.77225934 6.32552454 6.375 10.3671875 C6.79668457 11.40665527 7.21836914 12.44612305 7.65283203 13.51708984 C8.09739746 14.6252002 8.54196289 15.73331055 9 16.875 C21.61285968 49.88798831 21.61285968 49.88798831 46 74 C50.43848078 74.426777 53.8306876 74.35620185 57.47265625 71.5546875 C69.10232037 59.71681968 73.67821735 40.58962817 78.24780273 25.20263672 C78.56305908 24.16768066 78.87831543 23.13272461 79.203125 22.06640625 C79.47801758 21.13771729 79.75291016 20.20902832 80.03613281 19.25219727 C81 17 81 17 84 15 C87 15.0625 87 15.0625 90 16 C93.260979 20.26370898 94.38888029 25.22855725 95.8125 30.3125 C102.11444249 54.2437691 102.11444249 54.2437691 116.75 73.3125 C121.08090964 74.6358335 124.85265908 74.9995512 128.98046875 73.078125 C148.55286854 59.79545848 159.72150998 28.18917853 167.89477539 6.96362305 C169.79762612 2.10118694 169.79762612 2.10118694 172 1 C175 0.8125 175 0.8125 178 1 C180 3 180 3 180.28295898 6.20947266 C179.98211936 10.2395296 179.08961017 12.95903463 177.47265625 16.6484375 C177.07647346 17.56383553 177.07647346 17.56383553 176.67228699 18.49772644 C175.81619781 20.46324479 174.94074093 22.41929033 174.0625 24.375 C173.46235969 25.7315986 172.86242587 27.08828856 172.26269531 28.44506836 C151.03956769 76.15246486 151.03956769 76.15246486 130 86 C124.3941915 87.72322766 119.18312809 87.83436929 113.875 85.3125 C98.38835601 76.58805533 91.81124502 58.96298787 86 43 C85.79955078 43.53778076 85.59910156 44.07556152 85.39257812 44.62963867 C72.71967524 78.29832312 72.71967524 78.29832312 58.6875 85.4375 C53.12847712 87.62140185 47.71479479 88.06439092 41.94140625 86.41015625 C16.41990461 75.26696539 3.98709973 38.56513704 -6 15 C-6.37447266 14.13093018 -6.74894531 13.26186035 -7.13476562 12.36645508 C-8.32772536 9.10365634 -8.31869333 6.44188793 -8 3 C-5.96763864 -0.31595801 -3.73306683 -0.72840328 0 0 Z " fill="#020304" transform="translate(534,644)"/>
<path d="M0 0 C2.52240067 2.28473325 4.00024666 4.57402336 5.56640625 7.5859375 C6.0469043 8.50576416 6.52740234 9.42559082 7.02246094 10.37329102 C7.53067383 11.36385498 8.03888672 12.35441895 8.5625 13.375 C9.09262695 14.40359131 9.62275391 15.43218262 10.16894531 16.49194336 C11.79051018 19.65574159 13.39832951 22.82608865 15 26 C15.4645459 26.9182959 15.9290918 27.8365918 16.40771484 28.78271484 C40.11649621 76.01648857 40.11649621 76.01648857 36 95 C31.25012559 99.86862127 24.14361606 101.02841169 17.51953125 101.30078125 C15.9506329 101.31993631 14.38147735 101.32341016 12.8125 101.3125 C11.98532471 101.30831055 11.15814941 101.30412109 10.3059082 101.29980469 C1.03624411 101.13075853 -8.76578698 100.30674981 -16 94 C-21.1272186 88.45706097 -21.40558081 83.62939409 -21.34765625 76.28125 C-19.8265241 50.11013956 -8.80829535 24.38633542 0 0 Z " fill="#ABD1E5" transform="translate(1039,789)"/>
<path d="M0 0 C0.99 0.495 0.99 0.495 2 1 C-0.08071569 3.54381878 -2.16511685 6.08459616 -4.25 8.625 C-4.8171875 9.31851563 -5.384375 10.01203125 -5.96875 10.7265625 C-7.96803552 13.16047531 -9.98202932 15.58155293 -12 18 C-12.42062714 18.50747772 -12.84125427 19.01495544 -13.27462769 19.53781128 C-20.79951195 28.59144925 -28.76795519 37.08343374 -37.1184082 45.37915039 C-39.07155488 47.32150484 -41.0136762 49.27442958 -42.95507812 51.22851562 C-50.00170081 58.28256216 -57.17132243 64.81589842 -65 71 C-66.13782113 71.96899592 -67.26926256 72.94559765 -68.390625 73.93359375 C-81.5382497 85.44674598 -97.06925979 98.4956804 -115.3125 98.27734375 C-120.43537957 97.74867449 -123.01957033 94.95651675 -126.5625 91.5 C-133.7940326 82.12923589 -135.34453178 70.35947301 -137 59 C-136.24332031 59.77988281 -135.48664062 60.55976562 -134.70703125 61.36328125 C-128.2934557 67.61027042 -120.92771878 69.97120556 -112.125 70.375 C-81.39175398 69.60985695 -56.24713128 48.74765677 -34.01171875 29.578125 C-31.21476951 27.18384938 -28.37150572 24.86633432 -25.5 22.5625 C-20.11003722 18.18118523 -15.04765398 13.49041694 -9.97265625 8.75390625 C-6.73122552 5.73411181 -3.39682256 2.84385145 0 0 Z " fill="#8796B2" transform="translate(836,909)"/>
<path d="M0 0 C3.76565039 1.50457906 5.54295677 3.63416567 8 6.8125 C12.94439311 13.02154811 18.23389156 18.83793963 23.68408203 24.60498047 C24.7752368 25.76172599 25.85581906 26.92843401 26.93359375 28.09765625 C42.58632281 44.57618876 67.96658816 57.19840216 90.75 58.4375 C97.1371188 58.17534214 102.91632189 55.71324644 107.8125 51.6875 C113.05467332 45.24711564 116.10131407 39.84676193 118.5625 31.9375 C118.85987061 31.01735107 119.15724121 30.09720215 119.46362305 29.14916992 C121.54365492 22.65282618 123.44590585 16.11810575 125.17578125 9.51953125 C126 7 126 7 128 5 C128.91220746 62.29364538 128.91220746 62.29364538 115.0078125 77.125 C109.69764912 81.94888469 105.56070193 83.61294039 98.3515625 83.52734375 C81.86033292 80.93256987 66.73407011 66.7953029 54.64453125 56.15234375 C52.67330937 54.41821041 50.67996152 52.74596781 48.62304688 51.11328125 C41.15841806 45.18532694 34.41284269 38.7204532 27.70166016 31.96240234 C25.87751253 30.12752731 24.04290127 28.30360668 22.20703125 26.48046875 C16.02799627 20.30768722 10.17832868 14.07452005 4.77392578 7.20263672 C3.08702464 5.01363108 3.08702464 5.01363108 1.26123047 3.32470703 C0 2 0 2 0 0 Z " fill="#8796B2" transform="translate(415,924)"/>
<path d="M0 0 C3.56867997 2.98773207 4.46729561 4.56176631 5.0625 9.125 C4.58291545 13.12153796 3.22010567 15.15459308 0.6875 18.25 C-2.72707004 20.84036348 -6.14532171 20.68108741 -10.3125 20.25 C-13.42391288 18.6062347 -15.60143717 17.21963114 -17.6875 14.375 C-19.00851084 9.88356315 -18.79633625 7.14855304 -16.5625 3 C-11.9714009 -2.61134335 -6.54145345 -3.4558622 0 0 Z " fill="#F8F8F8" transform="translate(405.3125,640.75)"/>
<path d="M0 0 C3.02508145 1.73602105 5.41790069 3.83580137 7 7 C7.68128376 13.81283762 7.68128376 13.81283762 5.953125 16.82421875 C2.82207185 20.62752744 1.13366332 21.88663367 -3.75 22.375 C-7.10058068 22.35058775 -8.84894532 21.75601354 -11.4375 19.625 C-14.88331435 16.0951414 -15.39555836 14.0716348 -15.359375 9.10546875 C-14.72418186 5.38406547 -12.66020984 3.59687151 -10 1 C-6.77140153 -0.61429923 -3.49006347 -0.59570657 0 0 Z " fill="#FCFCFC" transform="translate(816,639)"/>
<path d="M0 0 C0.66 0.33 1.32 0.66 2 1 C-7.9 10.9 -17.8 20.8 -28 31 C-28.66 30.67 -29.32 30.34 -30 30 C-9.62108014 7.98344948 -9.62108014 7.98344948 0 0 Z " fill="#A6CBDF" transform="translate(283,414)"/>
<path d="M0 0 C4.92127143 4.11779854 9.51454836 8.41462494 14 13 C14.99885387 14.00114482 15.99849284 15.00150943 17 16 C14 16 14 16 12.37426758 14.74658203 C11.80345459 14.17278809 11.2326416 13.59899414 10.64453125 13.0078125 C10.02255859 12.38519531 9.40058594 11.76257813 8.75976562 11.12109375 C8.11716797 10.46238281 7.47457031 9.80367187 6.8125 9.125 C6.15830078 8.47402344 5.50410156 7.82304688 4.83007812 7.15234375 C0 2.26686327 0 2.26686327 0 0 Z " fill="#90A1BE" transform="translate(433,944)"/>
<path d="M0 0 C0.99 0.33 1.98 0.66 3 1 C-3.93 3.97 -3.93 3.97 -11 7 C-11.33 6.34 -11.66 5.68 -12 5 C-12.66 4.67 -13.32 4.34 -14 4 C-13.15695312 3.79503906 -12.31390625 3.59007812 -11.4453125 3.37890625 C-10.34960938 3.10949219 -9.25390625 2.84007812 -8.125 2.5625 C-7.03445313 2.29566406 -5.94390625 2.02882813 -4.8203125 1.75390625 C-2.07515279 1.1213522 -2.07515279 1.1213522 0 0 Z " fill="#CBCBCB" transform="translate(436,737)"/>
</svg>
