<?xml version="1.0" encoding="UTF-8"?>
<svg version="1.1" xmlns="http://www.w3.org/2000/svg" width="1240" height="1055">
<path d="M0 0 C4.02526014 3.68268481 4.76342184 4.97573139 5.3125 10.375 C4.93025005 22.51705718 -5.06465072 32.14429499 -13.22265625 40.09375 C-29.3119562 54.78879149 -48.07926707 65.89319733 -66.87329102 76.72509766 C-80.54789489 83.32912637 -80.54789489 83.32912637 -89.0625 94.6875 C-89.45668974 102.25594301 -86.936649 108.30523141 -83.0625 114.6875 C-82.65773438 115.44289063 -82.25296875 116.19828125 -81.8359375 116.9765625 C-80.07672296 119.01829499 -80.07672296 119.01829499 -76.8046875 119.078125 C-65.63676819 117.91237142 -55.0587406 111.77068965 -45.125 106.875 C-5.4504075 87.35513694 -5.4504075 87.35513694 9.9375 89.6875 C13.12250291 91.30895603 15.15861096 92.66078264 17.3125 95.5 C19.13012874 101.86170058 17.64627252 106.46884084 14.59765625 112.08203125 C5.18584535 126.853038 -10.65253575 135.84321378 -24.93359375 145.27734375 C-29.35557801 148.20540334 -33.73526206 151.18366734 -38.0625 154.25 C-39.114375 154.99378906 -40.16625 155.73757812 -41.25 156.50390625 C-46.65236049 160.68644859 -46.65236049 160.68644859 -50.1875 166.375 C-49.83498398 175.71667452 -43.15283754 182.1897901 -36.9765625 188.53515625 C-33.46638165 191.12779653 -31.38656339 191.37429329 -27.0625 191.6875 C-17.24168855 190.05861123 -8.54187697 185.76735787 0.125 181.0625 C1.30301925 180.43611604 2.48174207 179.81105366 3.66113281 179.18725586 C7.09402228 177.36777327 10.51575059 175.52785046 13.9375 173.6875 C63.33928305 147.35177209 63.33928305 147.35177209 82.9375 149.6875 C89.58158405 151.79145995 93.34257608 154.9229652 96.8125 160.9375 C99.2329103 169.00553434 96.808236 175.38352428 92.90625 182.64453125 C81.55774031 200.18518412 60.73554275 209.62194556 42.93310547 219.08642578 C30.53889114 225.71081515 18.52709391 232.76036424 6.875 240.625 C5.94026855 241.25196777 5.00553711 241.87893555 4.04248047 242.52490234 C-3.38921024 247.51652408 -3.38921024 247.51652408 -7.90234375 255.04296875 C-8.1157806 258.56727967 -7.42705929 261.56718623 -6.625 265 C-6.19380859 266.88138672 -6.19380859 266.88138672 -5.75390625 268.80078125 C-5.52574219 269.75339844 -5.29757812 270.70601563 -5.0625 271.6875 C-4.17433594 271.23761719 -3.28617187 270.78773438 -2.37109375 270.32421875 C2.05468551 268.09091337 6.49472653 265.88676645 10.9375 263.6875 C11.79956055 263.25937012 12.66162109 262.83124023 13.54980469 262.39013672 C74.18477647 232.4025473 140.89603512 214.40909918 208.75 214.5 C210.10967896 214.50140488 210.10967896 214.50140488 211.49682617 214.50283813 C284.79750872 214.66649892 361.53090817 234.49229455 424.9375 271.6875 C428.06122765 261.67795521 428.06122765 261.67795521 426.9375 251.6875 C421.41842972 245.90095522 414.93573358 241.40640875 408.1875 237.1875 C406.7953125 236.30843994 406.7953125 236.30843994 405.375 235.41162109 C395.10518086 229.02154875 384.50327396 223.24135257 373.875 217.4765625 C352.55274223 205.87476796 352.55274223 205.87476796 344.625 199.8125 C343.62182739 199.04788452 343.62182739 199.04788452 342.59838867 198.26782227 C333.10522979 190.86838689 324.22740412 182.19271578 322.53515625 169.72265625 C322.29948096 162.6995326 323.69192302 159.2972246 328.25 154 C333.90964129 149.1300761 339.81824974 149.31423263 346.9375 149.6875 C369.7575117 152.85872499 390.2368618 164.6538353 410.17298889 175.45362854 C416.25477112 178.74568929 422.36448309 181.97082189 428.5390625 185.0859375 C429.51659233 185.58348289 429.51659233 185.58348289 430.51387024 186.09107971 C438.20281382 189.93589417 445.36277267 192.859265 453.9375 190.6875 C456.2908159 188.87390883 458.12929895 187.26299702 460.125 185.125 C460.64602295 184.58141846 461.1670459 184.03783691 461.70385742 183.4777832 C466.39505816 178.44708277 469.87796468 174.20008406 470 167 C468.02376403 160.83879375 462.51983352 157.42806824 457.4375 153.75 C456.80239502 153.2861792 456.16729004 152.8223584 455.51293945 152.34448242 C449.82345519 148.23462222 443.98242314 144.36492631 438.125 140.5 C406.36050422 119.48128172 406.36050422 119.48128172 402.38671875 104.62890625 C401.73194296 101.13015483 401.91918077 98.74143996 403.0625 95.375 C405.22030293 92.28214913 406.42171415 91.06324229 409.9375 89.6875 C415.87746647 89.15642141 421.30708029 89.91166617 427 91.5625 C427.75966064 91.7795459 428.51932129 91.9965918 429.30200195 92.22021484 C445.5418797 97.09786497 461.03128102 104.50402367 476.18823242 112.02001953 C487.59675129 117.96911367 487.59675129 117.96911367 499.9375 118.6875 C505.64312361 112.84762643 508.4300466 104.96460723 509.375 97 C508.8298031 92.87208058 507.47391366 90.97466038 504.9375 87.6875 C502.18193768 85.55171385 502.18193768 85.55171385 499.01953125 83.80078125 C498.45136185 83.46629471 497.88319244 83.13180817 497.29780579 82.78718567 C495.51765773 81.7420957 493.72787567 80.71494369 491.9375 79.6875 C489.73252809 78.39024853 487.52809294 77.09208424 485.32421875 75.79296875 C484.22916016 75.15302979 483.13410156 74.51309082 482.00585938 73.85375977 C466.52029875 64.79032325 451.51846833 55.4883414 437.9375 43.6875 C437.44266113 43.26500977 436.94782227 42.84251953 436.43798828 42.40722656 C427.29861144 34.57020377 417.86072804 25.77017591 414.9375 13.6875 C414.67922193 8.74689041 415.15230912 5.68490463 418.25 1.75 C423.6261623 -2.375892 428.22849731 -3.30989213 434.9375 -3.3125 C444.9005859 -1.922504 454.13756301 0.84407802 463.5 4.5 C464.41767151 4.85405914 464.41767151 4.85405914 465.35388184 5.215271 C500.54207022 18.8222265 538.51746136 35.80555267 568.9296875 58.25 C570.99860208 59.77580356 570.99860208 59.77580356 573.578125 61.24609375 C576.64916462 63.12227524 577.64239434 64.30583521 578.9375 67.6875 C579.80336657 80.85376517 572.08997715 95.19190389 566.4375 106.625 C565.81812722 107.88977722 565.19882529 109.15458913 564.57958984 110.41943359 C554.64215621 130.61706333 543.51874998 150.06875901 531.9296875 169.35888672 C530.01073993 172.56512828 528.11174553 175.78228966 526.21875 179.00390625 C508.24974911 209.47089268 488.10935127 238.47133107 465.70117188 265.84326172 C460.34940971 272.38230282 455.13296192 279.02398171 449.9375 285.6875 C455.07817279 289.15324978 460.25519296 292.54186453 465.51757812 295.81982422 C479.72669229 304.67482324 493.50730253 314.08886988 507 324 C507.79897705 324.58579834 508.5979541 325.17159668 509.42114258 325.77514648 C512.72535559 328.21950644 515.98358665 330.66674086 519.0703125 333.3828125 C519.91335938 334.12273437 520.75640625 334.86265625 521.625 335.625 C522.28886719 336.25277344 522.95273437 336.88054687 523.63671875 337.52734375 C526.56207937 339.0024407 528.52909252 338.41798679 531.68656921 337.97016907 C547.44998519 335.99061904 563.32309873 338.67588629 578.875 341.0625 C583.13302298 341.70280421 587.39221709 342.33478766 591.65234375 342.9609375 C593.20021576 343.18892784 593.20021576 343.18892784 594.77935791 343.42152405 C624.41530248 347.69713775 652.27884589 349.96886192 678.12890625 331.80859375 C694.72571838 319.2744227 705.38443402 303.47351872 708.46484375 282.7421875 C710.6158887 265.68893172 707.8830265 249.16384038 701.35546875 233.3203125 C701.00828293 232.46545258 700.66109711 231.61059265 700.3033905 230.72982788 C696.01167981 220.27026449 691.28504107 210.00637005 686.56567383 199.73486328 C671.75283966 167.43878118 671.75283966 167.43878118 673.9375 156.6875 C676.54110385 153.66169012 678.19811052 152.93396316 681.9375 151.6875 C704.42048513 154.71651697 730.76850286 182.71845936 744.01782227 199.86450195 C755.02366482 214.48154788 761.98367444 230.1175077 766.9375 247.6875 C767.13102051 248.36570801 767.32454102 249.04391602 767.52392578 249.74267578 C776.13116184 281.49984186 768.00321961 318.84353484 751.97167969 346.94091797 C746.08529868 356.88217617 739.01833173 365.48852746 730.9375 373.6875 C730.22078125 374.41710937 729.5040625 375.14671875 728.765625 375.8984375 C713.97494737 389.96626247 693.79962524 397.43354763 673.9375 400.6875 C673.19113281 400.81769531 672.44476562 400.94789063 671.67578125 401.08203125 C637.28388748 405.99515893 602.73938655 394.77061032 571.9375 380.6875 C572.57816406 381.3165625 573.21882812 381.945625 573.87890625 382.59375 C579.12851303 387.78859188 584.20713954 393.01654663 588.9375 398.6875 C589.61570801 399.49501709 589.61570801 399.49501709 590.30761719 400.31884766 C613.68319547 428.24258159 632.40249338 458.44921228 644.9375 492.6875 C645.32180176 493.70674561 645.32180176 493.70674561 645.71386719 494.74658203 C671.51137822 563.32527219 661.93102975 646.21878565 632.14892578 711.95532227 C631.38311719 713.59848017 630.58007218 715.22415041 629.7734375 716.84765625 C628.25272599 722.01381169 631.30784587 726.67889591 633.625 731.29296875 C634.15383789 732.34919434 634.68267578 733.40541992 635.22753906 734.49365234 C635.79182617 735.60949707 636.35611328 736.7253418 636.9375 737.875 C637.51983398 739.03467285 638.10216797 740.1943457 638.70214844 741.38916016 C642.11413818 748.15985652 645.61098733 754.87765707 649.1875 761.5625 C663.57251163 788.62278176 680.07867007 823.7141161 670.9140625 854.9765625 C666.78018877 866.45219598 660.82152308 874.88375948 649.9375 880.6875 C634.59430791 887.76743047 618.18361129 888.93535158 601.5 889.0625 C600.39076172 889.07643799 599.28152344 889.09037598 598.13867188 889.10473633 C571.81424241 888.96373876 545.53288314 884.1441085 519.60168457 880.03533936 C516.08423808 879.48056544 512.56533099 878.93537833 509.0463953 878.39014339 C505.62882243 877.85961528 502.21207138 877.32394609 498.79556084 876.786623 C497.17912041 876.53286944 495.56246108 876.28050593 493.94557381 876.0296154 C491.7051425 875.68102325 489.46588134 875.32569448 487.22680664 874.96850586 C485.95970352 874.76881699 484.6926004 874.56912811 483.38710022 874.36338806 C479.9375 873.6875 479.9375 873.6875 476.66627502 872.59165955 C471.37860113 870.83962767 466.29069729 873.08745177 461.1328125 874.6484375 C459.82091393 875.04049926 458.50889788 875.43216807 457.19677734 875.82348633 C456.52040222 876.02632233 455.8440271 876.22915833 455.14715576 876.43814087 C444.79195786 879.53954614 434.58268725 882.54425628 423.8359375 883.95703125 C418.37753333 885.3326668 415.24566833 889.32279429 411.91015625 893.640625 C406.99234414 899.76880321 401.60086055 905.29421081 396.0168457 910.81396484 C394.3680043 912.44441768 392.72743899 914.0828638 391.08789062 915.72265625 C385.54154755 921.25055923 379.91226668 926.62068402 373.9375 931.6875 C372.84228896 932.64807631 371.74849402 933.61027006 370.65625 934.57421875 C332.24203074 968.1341862 332.24203074 968.1341862 309.9375 967.6875 C302.32934715 966.47255466 297.00358192 962.64251968 292.34765625 956.63671875 C281.78634706 940.64695038 279.11004236 918.45106657 279.9375 899.6875 C279.29815521 899.75307098 278.65881042 899.81864197 278.00009155 899.88619995 C270.53778962 900.61259509 263.09316489 900.99298398 255.6015625 901.2578125 C254.34068817 901.30370514 253.07981384 901.34959778 251.7807312 901.3968811 C247.70816581 901.54144279 243.63543766 901.67894497 239.5625 901.8125 C238.86865204 901.83542618 238.17480408 901.85835236 237.45993042 901.88197327 C204.79101516 902.95422667 172.52317576 902.20990668 139.9375 899.6875 C139.95200195 900.65864746 139.96650391 901.62979492 139.98144531 902.63037109 C140.04476982 909.9588254 139.95582755 917.07496104 138.6875 924.3125 C138.55255127 925.11171875 138.41760254 925.9109375 138.27856445 926.734375 C135.89690281 940.16343825 132.20109583 954.46472908 121.078125 963.31640625 C115.49863613 966.89012996 109.53244411 968.45691015 102.9375 967.6875 C77.57304123 961.71740798 57.67513593 941.80082074 38.9375 924.6875 C37.50277344 923.39199219 37.50277344 923.39199219 36.0390625 922.0703125 C25.82545596 912.82227801 15.42265193 903.37703472 7.15625 892.30078125 C3.63094009 887.8146799 1.07498959 885.31329803 -4.59765625 884.10546875 C-5.65766846 883.86836182 -6.71768066 883.63125488 -7.80981445 883.38696289 C-8.88320068 883.15614014 -9.95658691 882.92531738 -11.0625 882.6875 C-13.01720276 882.21745087 -14.9703867 881.74103347 -16.921875 881.2578125 C-17.88424072 881.0218335 -18.84660645 880.78585449 -19.83813477 880.54272461 C-20.81967529 880.30175049 -21.80121582 880.06077637 -22.8125 879.8125 C-23.855271 879.55927979 -24.89804199 879.30605957 -25.97241211 879.04516602 C-30.60497321 877.89819521 -35.16098629 876.72589682 -39.64453125 875.08203125 C-40.32741211 874.83630371 -41.01029297 874.59057617 -41.71386719 874.33740234 C-43.46883838 873.6832115 -45.20626039 872.98243836 -46.94140625 872.27734375 C-50.79192993 871.31603484 -54.0017061 872.1532042 -57.83740234 872.98852539 C-65.78225969 874.6649091 -73.76657686 876.01090522 -81.78515625 877.28125 C-83.26126836 877.51638375 -84.73737812 877.75153223 -86.21348572 877.98669434 C-89.29308352 878.47636433 -92.37309929 878.96330722 -95.45336914 879.44873047 C-98.5418133 879.93590464 -101.62931776 880.42845496 -104.71606445 880.92626953 C-157.11114144 889.37160895 -157.11114144 889.37160895 -181.75 889.0625 C-182.98347168 889.05379883 -184.21694336 889.04509766 -185.48779297 889.03613281 C-204.59901623 888.73131267 -225.1006558 886.34914375 -239.9375 873.125 C-240.63875 872.320625 -241.34 871.51625 -242.0625 870.6875 C-242.743125 869.924375 -243.42375 869.16125 -244.125 868.375 C-253.92676827 854.77899886 -254.40496751 837.75503593 -251.87109375 821.73046875 C-250.97057836 816.96957661 -249.77728919 812.29735003 -248.5 807.625 C-248.29745605 806.85430176 -248.09491211 806.08360352 -247.88623047 805.28955078 C-242.83977321 787.69533532 -233.99494811 771.10155938 -225.77661133 754.83447266 C-224.22809868 751.76914569 -222.68856753 748.69943088 -221.15039062 745.62890625 C-220.1567548 743.65078802 -219.16263259 741.67291401 -218.16796875 739.6953125 C-217.71375046 738.79112579 -217.25953217 737.88693909 -216.79154968 736.95535278 C-214.86926227 733.1536157 -212.92974287 729.441092 -210.68359375 725.8203125 C-208.86691546 722.94883143 -208.86691546 722.94883143 -209.16333008 720.48779297 C-209.44587646 719.84986816 -209.72842285 719.21194336 -210.01953125 718.5546875 C-210.48673584 717.4095166 -210.48673584 717.4095166 -210.96337891 716.24121094 C-211.32608887 715.39848633 -211.68879883 714.55576172 -212.0625 713.6875 C-212.80567569 711.67296909 -213.53801458 709.65442007 -214.26171875 707.6328125 C-214.66229492 706.53783447 -215.06287109 705.44285645 -215.47558594 704.31469727 C-237.75347966 643.09316747 -248.21157727 579.75720873 -232.0625 515.6875 C-231.75602539 514.420271 -231.75602539 514.420271 -231.44335938 513.12744141 C-226.18874687 491.6544257 -217.52421731 469.62864483 -206.0625 450.6875 C-205.63001953 449.97013672 -205.19753906 449.25277344 -204.75195312 448.51367188 C-195.41502335 433.157048 -185.47093778 418.23701032 -173.6484375 404.67578125 C-171.19134113 401.83638741 -168.84039214 398.93575505 -166.5 396 C-162.04293428 390.5094118 -157.1563432 385.5899253 -152.0625 380.6875 C-152.69526855 380.95900879 -153.32803711 381.23051758 -153.97998047 381.51025391 C-194.19350995 398.69682836 -237.32021452 410.29352331 -279.85839844 393.6015625 C-308.45387427 381.74273867 -327.61145195 358.83399714 -339.79296875 330.80859375 C-353.94381834 296.32143246 -353.17019257 259.73308227 -339.25 225.5 C-325.59655833 194.90104317 -297.47800711 166.74971343 -267.0625 152.6875 C-263.50669816 152.21524507 -260.13176964 152.37797458 -256.6875 153.375 C-254.25354152 155.34088954 -253.76922311 156.60361735 -253.0625 159.6875 C-253.15666707 166.71156599 -254.81969147 172.64314746 -257.5546875 179.0546875 C-257.90884735 179.91150116 -258.2630072 180.76831482 -258.62789917 181.65109253 C-262.94585649 191.99383227 -267.64416648 202.17195631 -272.35888672 212.33837891 C-278.96473129 226.61285541 -285.79571677 241.46743152 -288 257.1875 C-288.1702771 258.35104004 -288.1702771 258.35104004 -288.34399414 259.53808594 C-291.08234272 280.71693206 -286.26366733 300.91241878 -273.1875 318 C-259.87782182 333.72269236 -239.74674489 344.82249109 -219.0625 346.6875 C-208.37922403 347.15897594 -197.91086796 346.16378048 -187.3125 345 C-186.49623138 344.91335083 -185.67996277 344.82670166 -184.83895874 344.73742676 C-172.79460472 343.45788462 -160.84008776 341.80842985 -148.875 339.9375 C-122.70018496 335.85133916 -122.70018496 335.85133916 -112.04345703 338.11669922 C-109.27802657 338.67771486 -106.92589855 339.10024073 -104.31689453 337.85302734 C-102.49817748 336.51838749 -100.85096604 335.08622564 -99.1875 333.5625 C-97.87308242 332.43884745 -96.55523101 331.31920208 -95.234375 330.203125 C-94.21053711 329.32817383 -94.21053711 329.32817383 -93.16601562 328.43554688 C-89.70903087 325.56275082 -86.0886291 322.93153479 -82.4375 320.3125 C-81.68976318 319.77608887 -80.94202637 319.23967773 -80.17163086 318.68701172 C-67.19761551 309.45600048 -53.88391764 300.73799136 -40.375 292.3125 C-39.47160889 291.74660156 -38.56821777 291.18070312 -37.63745117 290.59765625 C-36.8044751 290.08332031 -35.97149902 289.56898438 -35.11328125 289.0390625 C-34.37762939 288.58354004 -33.64197754 288.12801758 -32.8840332 287.65869141 C-31.0625 286.6875 -31.0625 286.6875 -29.0625 286.6875 C-29.56136719 286.0790625 -30.06023437 285.470625 -30.57421875 284.84375 C-32.13567933 282.93747856 -33.69536842 281.02975553 -35.25390625 279.12109375 C-37.17105951 276.77382304 -39.09695348 274.43404876 -41.02734375 272.09765625 C-49.71445178 261.54444891 -57.94806915 250.68526444 -66.0625 239.6875 C-66.619375 238.93742676 -67.17625 238.18735352 -67.75 237.41455078 C-156.76101659 117.35131356 -156.76101659 117.35131356 -158.4375 71.3125 C-158.48648438 70.39726563 -158.53546875 69.48203125 -158.5859375 68.5390625 C-157.86776655 64.62663869 -155.92873481 62.29757594 -153.0625 59.6875 C-150.7294481 58.15643469 -148.52255127 56.83849627 -146.0625 55.5625 C-140.65063527 52.67553564 -135.30829624 49.69130932 -130.00717163 46.60594177 C-117.71646605 39.47019434 -105.15742321 32.95730107 -92.4375 26.625 C-91.39199982 26.10279877 -90.34649963 25.58059753 -89.26931763 25.04257202 C-73.46974008 17.16652399 -57.67358692 9.71337227 -41.0625 3.6875 C-40.28277832 3.39907227 -39.50305664 3.11064453 -38.69970703 2.81347656 C-10.9720312 -7.36012031 -10.9720312 -7.36012031 0 0 Z " fill="#ABD1E5" transform="translate(410.0625,47.3125)"/>
<path d="M0 0 C4.02526014 3.68268481 4.76342184 4.97573139 5.3125 10.375 C4.93025005 22.51705718 -5.06465072 32.14429499 -13.22265625 40.09375 C-29.3119562 54.78879149 -48.07926707 65.89319733 -66.87329102 76.72509766 C-80.54789489 83.32912637 -80.54789489 83.32912637 -89.0625 94.6875 C-89.45668974 102.25594301 -86.936649 108.30523141 -83.0625 114.6875 C-82.65773438 115.44289063 -82.25296875 116.19828125 -81.8359375 116.9765625 C-80.07672296 119.01829499 -80.07672296 119.01829499 -76.8046875 119.078125 C-65.63676819 117.91237142 -55.0587406 111.77068965 -45.125 106.875 C-5.4504075 87.35513694 -5.4504075 87.35513694 9.9375 89.6875 C13.12250291 91.30895603 15.15861096 92.66078264 17.3125 95.5 C19.13012874 101.86170058 17.64627252 106.46884084 14.59765625 112.08203125 C5.18584535 126.853038 -10.65253575 135.84321378 -24.93359375 145.27734375 C-29.35557801 148.20540334 -33.73526206 151.18366734 -38.0625 154.25 C-39.114375 154.99378906 -40.16625 155.73757812 -41.25 156.50390625 C-46.65236049 160.68644859 -46.65236049 160.68644859 -50.1875 166.375 C-49.83498398 175.71667452 -43.15283754 182.1897901 -36.9765625 188.53515625 C-33.46638165 191.12779653 -31.38656339 191.37429329 -27.0625 191.6875 C-17.24168855 190.05861123 -8.54187697 185.76735787 0.125 181.0625 C1.30301925 180.43611604 2.48174207 179.81105366 3.66113281 179.18725586 C7.09402228 177.36777327 10.51575059 175.52785046 13.9375 173.6875 C63.33928305 147.35177209 63.33928305 147.35177209 82.9375 149.6875 C89.58158405 151.79145995 93.34257608 154.9229652 96.8125 160.9375 C99.2329103 169.00553434 96.808236 175.38352428 92.90625 182.64453125 C81.55774031 200.18518412 60.73554275 209.62194556 42.93310547 219.08642578 C30.53889114 225.71081515 18.52709391 232.76036424 6.875 240.625 C5.94026855 241.25196777 5.00553711 241.87893555 4.04248047 242.52490234 C-3.38921024 247.51652408 -3.38921024 247.51652408 -7.90234375 255.04296875 C-8.1157806 258.56727967 -7.42705929 261.56718623 -6.625 265 C-6.19380859 266.88138672 -6.19380859 266.88138672 -5.75390625 268.80078125 C-5.52574219 269.75339844 -5.29757812 270.70601563 -5.0625 271.6875 C-4.17433594 271.23761719 -3.28617187 270.78773438 -2.37109375 270.32421875 C2.05468551 268.09091337 6.49472653 265.88676645 10.9375 263.6875 C11.79956055 263.25937012 12.66162109 262.83124023 13.54980469 262.39013672 C74.18477647 232.4025473 140.89603512 214.40909918 208.75 214.5 C210.10967896 214.50140488 210.10967896 214.50140488 211.49682617 214.50283813 C284.79750872 214.66649892 361.53090817 234.49229455 424.9375 271.6875 C428.06122765 261.67795521 428.06122765 261.67795521 426.9375 251.6875 C421.41842972 245.90095522 414.93573358 241.40640875 408.1875 237.1875 C406.7953125 236.30843994 406.7953125 236.30843994 405.375 235.41162109 C395.10518086 229.02154875 384.50327396 223.24135257 373.875 217.4765625 C352.55274223 205.87476796 352.55274223 205.87476796 344.625 199.8125 C343.62182739 199.04788452 343.62182739 199.04788452 342.59838867 198.26782227 C333.10522979 190.86838689 324.22740412 182.19271578 322.53515625 169.72265625 C322.29948096 162.6995326 323.69192302 159.2972246 328.25 154 C333.90964129 149.1300761 339.81824974 149.31423263 346.9375 149.6875 C369.7575117 152.85872499 390.2368618 164.6538353 410.17298889 175.45362854 C416.25477112 178.74568929 422.36448309 181.97082189 428.5390625 185.0859375 C429.51659233 185.58348289 429.51659233 185.58348289 430.51387024 186.09107971 C438.20281382 189.93589417 445.36277267 192.859265 453.9375 190.6875 C456.2908159 188.87390883 458.12929895 187.26299702 460.125 185.125 C460.64602295 184.58141846 461.1670459 184.03783691 461.70385742 183.4777832 C466.39505816 178.44708277 469.87796468 174.20008406 470 167 C468.02376403 160.83879375 462.51983352 157.42806824 457.4375 153.75 C456.80239502 153.2861792 456.16729004 152.8223584 455.51293945 152.34448242 C449.82345519 148.23462222 443.98242314 144.36492631 438.125 140.5 C406.36050422 119.48128172 406.36050422 119.48128172 402.38671875 104.62890625 C401.73194296 101.13015483 401.91918077 98.74143996 403.0625 95.375 C405.22030293 92.28214913 406.42171415 91.06324229 409.9375 89.6875 C415.87746647 89.15642141 421.30708029 89.91166617 427 91.5625 C427.75966064 91.7795459 428.51932129 91.9965918 429.30200195 92.22021484 C445.5418797 97.09786497 461.03128102 104.50402367 476.18823242 112.02001953 C487.59675129 117.96911367 487.59675129 117.96911367 499.9375 118.6875 C505.64312361 112.84762643 508.4300466 104.96460723 509.375 97 C508.8298031 92.87208058 507.47391366 90.97466038 504.9375 87.6875 C502.18193768 85.55171385 502.18193768 85.55171385 499.01953125 83.80078125 C498.45136185 83.46629471 497.88319244 83.13180817 497.29780579 82.78718567 C495.51765773 81.7420957 493.72787567 80.71494369 491.9375 79.6875 C489.73252809 78.39024853 487.52809294 77.09208424 485.32421875 75.79296875 C484.22916016 75.15302979 483.13410156 74.51309082 482.00585938 73.85375977 C466.52029875 64.79032325 451.51846833 55.4883414 437.9375 43.6875 C437.44266113 43.26500977 436.94782227 42.84251953 436.43798828 42.40722656 C427.29861144 34.57020377 417.86072804 25.77017591 414.9375 13.6875 C414.67922193 8.74689041 415.15230912 5.68490463 418.25 1.75 C423.6261623 -2.375892 428.22849731 -3.30989213 434.9375 -3.3125 C444.9005859 -1.922504 454.13756301 0.84407802 463.5 4.5 C464.41767151 4.85405914 464.41767151 4.85405914 465.35388184 5.215271 C500.54207022 18.8222265 538.51746136 35.80555267 568.9296875 58.25 C570.99860208 59.77580356 570.99860208 59.77580356 573.578125 61.24609375 C576.64916462 63.12227524 577.64239434 64.30583521 578.9375 67.6875 C579.80336657 80.85376517 572.08997715 95.19190389 566.4375 106.625 C565.81812722 107.88977722 565.19882529 109.15458913 564.57958984 110.41943359 C554.64215621 130.61706333 543.51874998 150.06875901 531.9296875 169.35888672 C530.01073993 172.56512828 528.11174553 175.78228966 526.21875 179.00390625 C508.24974911 209.47089268 488.10935127 238.47133107 465.70117188 265.84326172 C460.34940971 272.38230282 455.13296192 279.02398171 449.9375 285.6875 C455.07817279 289.15324978 460.25519296 292.54186453 465.51757812 295.81982422 C479.72669229 304.67482324 493.50730253 314.08886988 507 324 C507.79897705 324.58579834 508.5979541 325.17159668 509.42114258 325.77514648 C512.72535559 328.21950644 515.98358665 330.66674086 519.0703125 333.3828125 C519.91335938 334.12273437 520.75640625 334.86265625 521.625 335.625 C522.28886719 336.25277344 522.95273437 336.88054687 523.63671875 337.52734375 C526.56207937 339.0024407 528.52909252 338.41798679 531.68656921 337.97016907 C547.44998519 335.99061904 563.32309873 338.67588629 578.875 341.0625 C583.13302298 341.70280421 587.39221709 342.33478766 591.65234375 342.9609375 C593.20021576 343.18892784 593.20021576 343.18892784 594.77935791 343.42152405 C624.41530248 347.69713775 652.27884589 349.96886192 678.12890625 331.80859375 C694.72571838 319.2744227 705.38443402 303.47351872 708.46484375 282.7421875 C710.6158887 265.68893172 707.8830265 249.16384038 701.35546875 233.3203125 C701.00828293 232.46545258 700.66109711 231.61059265 700.3033905 230.72982788 C696.01167981 220.27026449 691.28504107 210.00637005 686.56567383 199.73486328 C671.75283966 167.43878118 671.75283966 167.43878118 673.9375 156.6875 C676.54110385 153.66169012 678.19811052 152.93396316 681.9375 151.6875 C704.42048513 154.71651697 730.76850286 182.71845936 744.01782227 199.86450195 C755.02366482 214.48154788 761.98367444 230.1175077 766.9375 247.6875 C767.13102051 248.36570801 767.32454102 249.04391602 767.52392578 249.74267578 C776.13116184 281.49984186 768.00321961 318.84353484 751.97167969 346.94091797 C746.08529868 356.88217617 739.01833173 365.48852746 730.9375 373.6875 C730.22078125 374.41710937 729.5040625 375.14671875 728.765625 375.8984375 C713.97494737 389.96626247 693.79962524 397.43354763 673.9375 400.6875 C673.19113281 400.81769531 672.44476562 400.94789063 671.67578125 401.08203125 C637.28388748 405.99515893 602.73938655 394.77061032 571.9375 380.6875 C572.57816406 381.3165625 573.21882812 381.945625 573.87890625 382.59375 C579.12851303 387.78859188 584.20713954 393.01654663 588.9375 398.6875 C589.61570801 399.49501709 589.61570801 399.49501709 590.30761719 400.31884766 C613.68319547 428.24258159 632.40249338 458.44921228 644.9375 492.6875 C645.32180176 493.70674561 645.32180176 493.70674561 645.71386719 494.74658203 C671.51137822 563.32527219 661.93102975 646.21878565 632.14892578 711.95532227 C631.38311719 713.59848017 630.58007218 715.22415041 629.7734375 716.84765625 C628.25272599 722.01381169 631.30784587 726.67889591 633.625 731.29296875 C634.15383789 732.34919434 634.68267578 733.40541992 635.22753906 734.49365234 C635.79182617 735.60949707 636.35611328 736.7253418 636.9375 737.875 C637.51983398 739.03467285 638.10216797 740.1943457 638.70214844 741.38916016 C642.11413818 748.15985652 645.61098733 754.87765707 649.1875 761.5625 C663.57251163 788.62278176 680.07867007 823.7141161 670.9140625 854.9765625 C666.78018877 866.45219598 660.82152308 874.88375948 649.9375 880.6875 C634.59430791 887.76743047 618.18361129 888.93535158 601.5 889.0625 C600.39076172 889.07643799 599.28152344 889.09037598 598.13867188 889.10473633 C571.81424241 888.96373876 545.53288314 884.1441085 519.60168457 880.03533936 C516.08423808 879.48056544 512.56533099 878.93537833 509.0463953 878.39014339 C505.62882243 877.85961528 502.21207138 877.32394609 498.79556084 876.786623 C497.17912041 876.53286944 495.56246108 876.28050593 493.94557381 876.0296154 C491.7051425 875.68102325 489.46588134 875.32569448 487.22680664 874.96850586 C485.95970352 874.76881699 484.6926004 874.56912811 483.38710022 874.36338806 C479.9375 873.6875 479.9375 873.6875 476.66627502 872.59165955 C471.37860113 870.83962767 466.29069729 873.08745177 461.1328125 874.6484375 C459.82091393 875.04049926 458.50889788 875.43216807 457.19677734 875.82348633 C456.52040222 876.02632233 455.8440271 876.22915833 455.14715576 876.43814087 C444.79195786 879.53954614 434.58268725 882.54425628 423.8359375 883.95703125 C418.37753333 885.3326668 415.24566833 889.32279429 411.91015625 893.640625 C406.99234414 899.76880321 401.60086055 905.29421081 396.0168457 910.81396484 C394.3680043 912.44441768 392.72743899 914.0828638 391.08789062 915.72265625 C385.54154755 921.25055923 379.91226668 926.62068402 373.9375 931.6875 C372.84228896 932.64807631 371.74849402 933.61027006 370.65625 934.57421875 C332.24203074 968.1341862 332.24203074 968.1341862 309.9375 967.6875 C302.32934715 966.47255466 297.00358192 962.64251968 292.34765625 956.63671875 C281.78634706 940.64695038 279.11004236 918.45106657 279.9375 899.6875 C279.29815521 899.75307098 278.65881042 899.81864197 278.00009155 899.88619995 C270.53778962 900.61259509 263.09316489 900.99298398 255.6015625 901.2578125 C254.34068817 901.30370514 253.07981384 901.34959778 251.7807312 901.3968811 C247.70816581 901.54144279 243.63543766 901.67894497 239.5625 901.8125 C238.86865204 901.83542618 238.17480408 901.85835236 237.45993042 901.88197327 C204.79101516 902.95422667 172.52317576 902.20990668 139.9375 899.6875 C139.95200195 900.65864746 139.96650391 901.62979492 139.98144531 902.63037109 C140.04476982 909.9588254 139.95582755 917.07496104 138.6875 924.3125 C138.55255127 925.11171875 138.41760254 925.9109375 138.27856445 926.734375 C135.89690281 940.16343825 132.20109583 954.46472908 121.078125 963.31640625 C115.49863613 966.89012996 109.53244411 968.45691015 102.9375 967.6875 C77.57304123 961.71740798 57.67513593 941.80082074 38.9375 924.6875 C37.50277344 923.39199219 37.50277344 923.39199219 36.0390625 922.0703125 C25.82545596 912.82227801 15.42265193 903.37703472 7.15625 892.30078125 C3.63094009 887.8146799 1.07498959 885.31329803 -4.59765625 884.10546875 C-5.65766846 883.86836182 -6.71768066 883.63125488 -7.80981445 883.38696289 C-8.88320068 883.15614014 -9.95658691 882.92531738 -11.0625 882.6875 C-13.01720276 882.21745087 -14.9703867 881.74103347 -16.921875 881.2578125 C-17.88424072 881.0218335 -18.84660645 880.78585449 -19.83813477 880.54272461 C-20.81967529 880.30175049 -21.80121582 880.06077637 -22.8125 879.8125 C-23.855271 879.55927979 -24.89804199 879.30605957 -25.97241211 879.04516602 C-30.60497321 877.89819521 -35.16098629 876.72589682 -39.64453125 875.08203125 C-40.32741211 874.83630371 -41.01029297 874.59057617 -41.71386719 874.33740234 C-43.46883838 873.6832115 -45.20626039 872.98243836 -46.94140625 872.27734375 C-50.79192993 871.31603484 -54.0017061 872.1532042 -57.83740234 872.98852539 C-65.78225969 874.6649091 -73.76657686 876.01090522 -81.78515625 877.28125 C-83.26126836 877.51638375 -84.73737812 877.75153223 -86.21348572 877.98669434 C-89.29308352 878.47636433 -92.37309929 878.96330722 -95.45336914 879.44873047 C-98.5418133 879.93590464 -101.62931776 880.42845496 -104.71606445 880.92626953 C-157.11114144 889.37160895 -157.11114144 889.37160895 -181.75 889.0625 C-182.98347168 889.05379883 -184.21694336 889.04509766 -185.48779297 889.03613281 C-204.59901623 888.73131267 -225.1006558 886.34914375 -239.9375 873.125 C-240.63875 872.320625 -241.34 871.51625 -242.0625 870.6875 C-242.743125 869.924375 -243.42375 869.16125 -244.125 868.375 C-253.92676827 854.77899886 -254.40496751 837.75503593 -251.87109375 821.73046875 C-250.97057836 816.96957661 -249.77728919 812.29735003 -248.5 807.625 C-248.29745605 806.85430176 -248.09491211 806.08360352 -247.88623047 805.28955078 C-242.83977321 787.69533532 -233.99494811 771.10155938 -225.77661133 754.83447266 C-224.22809868 751.76914569 -222.68856753 748.69943088 -221.15039062 745.62890625 C-220.1567548 743.65078802 -219.16263259 741.67291401 -218.16796875 739.6953125 C-217.71375046 738.79112579 -217.25953217 737.88693909 -216.79154968 736.95535278 C-214.86926227 733.1536157 -212.92974287 729.441092 -210.68359375 725.8203125 C-208.86691546 722.94883143 -208.86691546 722.94883143 -209.16333008 720.48779297 C-209.44587646 719.84986816 -209.72842285 719.21194336 -210.01953125 718.5546875 C-210.48673584 717.4095166 -210.48673584 717.4095166 -210.96337891 716.24121094 C-211.32608887 715.39848633 -211.68879883 714.55576172 -212.0625 713.6875 C-212.80567569 711.67296909 -213.53801458 709.65442007 -214.26171875 707.6328125 C-214.66229492 706.53783447 -215.06287109 705.44285645 -215.47558594 704.31469727 C-237.75347966 643.09316747 -248.21157727 579.75720873 -232.0625 515.6875 C-231.75602539 514.420271 -231.75602539 514.420271 -231.44335938 513.12744141 C-226.18874687 491.6544257 -217.52421731 469.62864483 -206.0625 450.6875 C-205.63001953 449.97013672 -205.19753906 449.25277344 -204.75195312 448.51367188 C-195.41502335 433.157048 -185.47093778 418.23701032 -173.6484375 404.67578125 C-171.19134113 401.83638741 -168.84039214 398.93575505 -166.5 396 C-162.04293428 390.5094118 -157.1563432 385.5899253 -152.0625 380.6875 C-152.69526855 380.95900879 -153.32803711 381.23051758 -153.97998047 381.51025391 C-194.19350995 398.69682836 -237.32021452 410.29352331 -279.85839844 393.6015625 C-308.45387427 381.74273867 -327.61145195 358.83399714 -339.79296875 330.80859375 C-353.94381834 296.32143246 -353.17019257 259.73308227 -339.25 225.5 C-325.59655833 194.90104317 -297.47800711 166.74971343 -267.0625 152.6875 C-263.50669816 152.21524507 -260.13176964 152.37797458 -256.6875 153.375 C-254.25354152 155.34088954 -253.76922311 156.60361735 -253.0625 159.6875 C-253.15666707 166.71156599 -254.81969147 172.64314746 -257.5546875 179.0546875 C-257.90884735 179.91150116 -258.2630072 180.76831482 -258.62789917 181.65109253 C-262.94585649 191.99383227 -267.64416648 202.17195631 -272.35888672 212.33837891 C-278.96473129 226.61285541 -285.79571677 241.46743152 -288 257.1875 C-288.1702771 258.35104004 -288.1702771 258.35104004 -288.34399414 259.53808594 C-291.08234272 280.71693206 -286.26366733 300.91241878 -273.1875 318 C-259.87782182 333.72269236 -239.74674489 344.82249109 -219.0625 346.6875 C-208.37922403 347.15897594 -197.91086796 346.16378048 -187.3125 345 C-186.49623138 344.91335083 -185.67996277 344.82670166 -184.83895874 344.73742676 C-172.79460472 343.45788462 -160.84008776 341.80842985 -148.875 339.9375 C-122.70018496 335.85133916 -122.70018496 335.85133916 -112.04345703 338.11669922 C-109.27802657 338.67771486 -106.92589855 339.10024073 -104.31689453 337.85302734 C-102.49817748 336.51838749 -100.85096604 335.08622564 -99.1875 333.5625 C-97.87308242 332.43884745 -96.55523101 331.31920208 -95.234375 330.203125 C-94.21053711 329.32817383 -94.21053711 329.32817383 -93.16601562 328.43554688 C-89.70903087 325.56275082 -86.0886291 322.93153479 -82.4375 320.3125 C-81.68976318 319.77608887 -80.94202637 319.23967773 -80.17163086 318.68701172 C-67.19761551 309.45600048 -53.88391764 300.73799136 -40.375 292.3125 C-39.47160889 291.74660156 -38.56821777 291.18070312 -37.63745117 290.59765625 C-36.8044751 290.08332031 -35.97149902 289.56898438 -35.11328125 289.0390625 C-34.37762939 288.58354004 -33.64197754 288.12801758 -32.8840332 287.65869141 C-31.0625 286.6875 -31.0625 286.6875 -29.0625 286.6875 C-29.56136719 286.0790625 -30.06023437 285.470625 -30.57421875 284.84375 C-32.13567933 282.93747856 -33.69536842 281.02975553 -35.25390625 279.12109375 C-37.17105951 276.77382304 -39.09695348 274.43404876 -41.02734375 272.09765625 C-49.71445178 261.54444891 -57.94806915 250.68526444 -66.0625 239.6875 C-66.619375 238.93742676 -67.17625 238.18735352 -67.75 237.41455078 C-156.76101659 117.35131356 -156.76101659 117.35131356 -158.4375 71.3125 C-158.48648438 70.39726563 -158.53546875 69.48203125 -158.5859375 68.5390625 C-157.86776655 64.62663869 -155.92873481 62.29757594 -153.0625 59.6875 C-150.7294481 58.15643469 -148.52255127 56.83849627 -146.0625 55.5625 C-140.65063527 52.67553564 -135.30829624 49.69130932 -130.00717163 46.60594177 C-117.71646605 39.47019434 -105.15742321 32.95730107 -92.4375 26.625 C-91.39199982 26.10279877 -90.34649963 25.58059753 -89.26931763 25.04257202 C-73.46974008 17.16652399 -57.67358692 9.71337227 -41.0625 3.6875 C-40.28277832 3.39907227 -39.50305664 3.11064453 -38.69970703 2.81347656 C-10.9720312 -7.36012031 -10.9720312 -7.36012031 0 0 Z M120.9375 231.6875 C119.92155762 231.89681152 118.90561523 232.10612305 117.85888672 232.32177734 C86.15648213 238.99683097 55.27626515 251.13169279 25.9375 264.6875 C24.39739258 265.38456055 24.39739258 265.38456055 22.82617188 266.09570312 C8.65030529 272.51409223 -4.76349778 279.91523128 -18.1015625 287.91894531 C-21.03571912 289.6715039 -23.98350894 291.39830434 -26.9375 293.1171875 C-36.92081616 298.93548148 -46.73943913 304.89266996 -56.25732422 311.44726562 C-58.15548578 312.75138528 -60.06328294 314.04048462 -61.97265625 315.328125 C-85.07961206 330.97451381 -107.08314661 348.2595034 -127.52246094 367.26074219 C-129.12573259 368.74608137 -130.73759444 370.22160708 -132.3515625 371.6953125 C-141.7287395 380.27025953 -150.81322734 389.00571891 -159.0625 398.6875 C-159.95345625 399.70397677 -160.84547339 400.71952418 -161.73828125 401.734375 C-173.81631629 415.53299609 -184.35139909 430.14303352 -194.0625 445.6875 C-194.46065918 446.31479004 -194.85881836 446.94208008 -195.26904297 447.58837891 C-211.55764514 473.28817345 -222.35527807 502.33751913 -228.25 532.125 C-228.40509033 532.89803467 -228.56018066 533.67106934 -228.7199707 534.4675293 C-231.65466859 550.21254333 -232.47559332 566.07802889 -232.4375 582.0625 C-232.43662384 582.97269897 -232.43574768 583.88289795 -232.43484497 584.82067871 C-232.38368074 601.06080791 -231.20316713 616.71639071 -228.0625 632.6875 C-227.83175781 633.86538086 -227.60101563 635.04326172 -227.36328125 636.25683594 C-220.73840005 668.93432533 -210.69633715 701.94475839 -195.17822266 731.53710938 C-193.96150569 733.88215161 -192.78293618 736.24439583 -191.60546875 738.609375 C-182.37221866 756.95553866 -171.17070894 773.8835757 -158.0625 789.6875 C-157.59134766 790.2654834 -157.12019531 790.8434668 -156.63476562 791.43896484 C-145.56824368 804.99139109 -133.02239688 816.19022032 -119.0625 826.6875 C-118.23395508 827.31736816 -118.23395508 827.31736816 -117.38867188 827.95996094 C-93.97465384 845.66560267 -66.87943468 858.5823881 -39.0625 867.6875 C-38.28938477 867.94112305 -37.51626953 868.19474609 -36.71972656 868.45605469 C-26.63582987 871.7090662 -16.51034161 873.95791115 -6.0625 875.6875 C-9.31384065 870.57258605 -12.78350057 865.73933921 -16.5625 861 C-23.16078093 852.61108389 -28.68022806 843.50985541 -34.32519531 834.46679688 C-36.47361127 831.02981441 -38.64185604 827.60565416 -40.81201172 824.18237305 C-42.28561049 821.85496932 -43.75272371 819.52358531 -45.21875 817.19140625 C-47.13619532 814.14422644 -49.07575497 811.11273465 -51.03125 808.08984375 C-51.73459473 806.9922876 -51.73459473 806.9922876 -52.45214844 805.87255859 C-53.33364182 804.49716314 -54.22191432 803.12607953 -55.11816406 801.76025391 C-57.28671823 798.35650421 -58.0625 796.8387248 -58.0625 792.6875 C-56.4125 792.3575 -54.7625 792.0275 -53.0625 791.6875 C-52.85109375 792.32816406 -52.6396875 792.96882812 -52.421875 793.62890625 C-50.50688487 797.93763405 -47.91650027 801.70389785 -45.3125 805.625 C-44.13569243 807.41469015 -42.95994961 809.20508079 -41.78515625 810.99609375 C-41.17430176 811.92663574 -40.56344727 812.85717773 -39.93408203 813.81591797 C-36.82963595 818.57909235 -33.79199693 823.38430355 -30.75 828.1875 C-11.52143249 858.45638087 10.17385266 885.89367749 35.4375 911.375 C36.30358887 912.25414062 37.16967773 913.13328125 38.06201172 914.0390625 C43.27954385 919.26346885 48.67891703 924.06497181 54.44189453 928.67993164 C57.05238792 930.7799206 59.56454889 932.96396291 62.06933594 935.18725586 C74.96737652 946.58943141 90.66809822 960.24904185 108.73828125 959.890625 C113.82587085 959.4207233 117.01055085 956.87945753 120.5 953.375 C135.31051152 935.45853131 133.0807631 905.62110931 133.25390625 883.76171875 C133.27451575 881.56069077 133.29551315 879.35966639 133.31687927 877.15864563 C133.3716878 871.40653426 133.42127629 865.65438965 133.46972656 859.90222168 C133.52024541 854.0161651 133.57577178 848.13015591 133.63085938 842.24414062 C133.73793563 830.72530104 133.83948966 819.20642005 133.9375 807.6875 C135.5875 807.3575 137.2375 807.0275 138.9375 806.6875 C139.2675 835.0675 139.5975 863.4475 139.9375 892.6875 C186.88052997 895.06436228 232.97542349 894.7517671 279.9375 892.6875 C280.2675 864.9675 280.5975 837.2475 280.9375 808.6875 C282.5875 808.3575 284.2375 808.0275 285.9375 807.6875 C285.94336624 808.90842346 285.94923248 810.12934692 285.95527649 811.38726807 C286.01286109 822.97748457 286.08580402 834.56751984 286.17321491 846.15755081 C286.21765945 852.11397154 286.25697036 858.07032793 286.28393555 864.02685547 C286.31022998 869.79123071 286.35081024 875.55535477 286.40068626 881.31957245 C286.41718034 883.50238637 286.42880189 885.68524355 286.43511391 887.86811066 C286.2397526 923.47497895 286.2397526 923.47497895 300.8125 954.73828125 C306.0124915 959.2774405 309.18080545 960.06228862 315.88671875 959.94921875 C331.25443956 958.63086114 344.68017968 946.22072622 355.9375 936.6875 C357.72812306 935.24870024 359.51980751 933.8112205 361.3125 932.375 C365.30435561 929.10057121 369.17186507 925.71658661 372.9609375 922.2109375 C373.52125671 921.69273941 374.08157593 921.17454132 374.65887451 920.64064026 C380.39875588 915.30248659 385.99033031 909.82079271 391.53222656 904.27807617 C393.19578808 902.61672292 394.86725104 900.9635931 396.5390625 899.31054688 C403.12715199 892.75656457 409.1539202 885.9741612 414.9375 878.6875 C415.93738947 877.50867485 416.94309786 876.33473641 417.95703125 875.16796875 C433.54733828 856.93734549 446.03577643 835.90167236 458.79296875 815.65234375 C460.91222377 812.29142518 463.06075139 808.95236847 465.23828125 805.62890625 C465.75769287 804.83524658 466.27710449 804.04158691 466.81225586 803.22387695 C467.78456706 801.74207151 468.76042625 800.26258566 469.74047852 798.78588867 C472.12129246 795.51204441 472.12129246 795.51204441 472.9375 791.6875 C474.5875 792.0175 476.2375 792.3475 477.9375 792.6875 C478.9375 795.6875 478.9375 795.6875 478.19995117 797.44238281 C477.59630737 798.4067627 477.59630737 798.4067627 476.98046875 799.390625 C476.5326001 800.11564209 476.08473145 800.84065918 475.62329102 801.58764648 C475.12885498 802.36309814 474.63441895 803.1385498 474.125 803.9375 C473.620896 804.74453369 473.11679199 805.55156738 472.59741211 806.38305664 C469.08968965 811.96584725 465.47028752 817.47088912 461.77783203 822.93286133 C458.40800896 827.92951829 455.19557384 833.01556254 452 838.125 C444.67713111 849.79226216 437.20965732 861.33364665 428.30078125 871.8671875 C426.73768326 873.57526747 426.73768326 873.57526747 426.9375 875.6875 C454.41055795 869.56637306 481.19856062 861.3978952 505.9375 847.6875 C507.1754834 847.00179932 507.1754834 847.00179932 508.43847656 846.30224609 C526.86768805 835.97881501 543.64513995 824.26526379 558.9375 809.6875 C560.36792553 808.45010768 561.80470073 807.21998646 563.25 806 C567.2207266 802.53169187 570.57743064 798.74340462 573.9375 794.6875 C574.39253906 794.15012207 574.84757813 793.61274414 575.31640625 793.05908203 C587.77999318 778.3283017 598.38619573 762.44049642 607.9375 745.6875 C608.29376465 745.06681641 608.6500293 744.44613281 609.01708984 743.80664062 C636.2929656 695.78935195 652.22409131 637.11857998 652.3125 582.0625 C652.31476593 581.13937012 652.31703186 580.21624023 652.31936646 579.26513672 C652.31453456 561.92597832 651.0529458 544.96451176 647.3125 528 C647.05307617 526.81575439 646.79365234 525.63150879 646.52636719 524.41137695 C641.95264054 504.30390948 634.68100796 485.32904135 625.9375 466.6875 C625.6187793 466.00461914 625.30005859 465.32173828 624.97167969 464.61816406 C611.25908803 435.817186 589.51210561 408.89681845 566.8203125 386.60546875 C565.01006158 384.76141646 563.3487066 382.85320013 561.6875 380.875 C557.37873784 375.87410636 552.45680568 371.56064887 547.55664062 367.15820312 C545.94165152 365.69127092 544.35074278 364.20224379 542.765625 362.703125 C536.27721654 356.58026068 529.5930253 350.89641035 522.51953125 345.4609375 C520.1087096 343.6082799 517.73567106 341.71954925 515.38671875 339.7890625 C506.26821185 332.30964388 496.74204473 325.61694615 486.95068359 319.04882812 C484.5832514 317.44795474 482.25777347 315.79332926 479.9375 314.125 C417.76737357 270.50993703 343.83779033 236.07183397 267.96435547 226.09326172 C264.99159124 225.69475114 262.0308352 225.2410335 259.06640625 224.78515625 C213.29759738 218.32686978 165.93935484 222.1836628 120.9375 231.6875 Z " fill="#0C0C0D" transform="translate(410.0625,47.3125)"/>
<path d="M0 0 C1.68585205 -0.02114868 1.68585205 -0.02114868 3.40576172 -0.04272461 C25.1466428 0.08251453 44.84574875 8.66173971 61.4375 22.375 C62.29021484 23.00921875 62.29021484 23.00921875 63.16015625 23.65625 C80.10532629 36.7957672 90.9458523 60.51446584 94.15625 81.3203125 C96.58704526 107.72144994 89.87824922 133.57264034 73 154.33984375 C57.30799104 172.9262629 34.84241106 185.79497704 10.4375 188.375 C-19.56868787 189.99277535 -43.89874486 181.64790744 -66.453125 161.703125 C-83.30833913 145.75900352 -93.42859962 122.67204098 -94.13212585 99.64045715 C-94.37298943 87.21072436 -94.27857902 75.046246 -89.5625 63.375 C-89.32644043 62.74174805 -89.09038086 62.10849609 -88.84716797 61.45605469 C-80.16801054 38.23329303 -62.82494295 18.9306589 -40.32421875 8.30859375 C-26.95006622 2.34280647 -14.60142089 0.13393068 0 0 Z " fill="#010102" transform="translate(398.5625,570.625)"/>
<path d="M0 0 C17.01453369 14.51168856 26.83828528 34.04402193 31.13671875 55.73046875 C31.32621094 56.67277344 31.51570312 57.61507812 31.7109375 58.5859375 C34.99790407 82.86124106 28.6801693 107.9512293 14.1809082 127.70874023 C-1.55162046 148.15896865 -22.74618111 160.00816899 -47.75390625 165.34765625 C-59.25087544 166.76311226 -71.60608176 166.42847524 -82.86328125 163.73046875 C-83.94351563 163.48554687 -85.02375 163.240625 -86.13671875 162.98828125 C-110.79127243 156.72768672 -130.73073298 141.02779655 -143.828125 119.32421875 C-156.26442939 97.82908507 -160.22022496 70.94204681 -153.90893555 46.74926758 C-146.14996379 20.97873962 -129.52072647 0.55310409 -106.03857422 -12.265625 C-70.71690364 -30.98357334 -30.51017979 -24.18337579 0 0 Z " fill="#010101" transform="translate(903.86328125,593.26953125)"/>
<path d="M0 0 C-0.36692149 11.5580268 -6.5401617 18.29710835 -14.69921875 26.046875 C-30.4930139 40.48525063 -49.06437249 51.46574907 -67.53930664 62.05444336 C-82.45300947 70.16413164 -82.45300947 70.16413164 -93 83 C-94.82339603 95.38595144 -90.78304372 105.12159838 -83.68359375 115.00390625 C-81.97468475 117.21793664 -81.97468475 117.21793664 -79 119 C-64.23746654 119.90445428 -51.1545118 112.30065459 -38.30371094 105.95483398 C-31.12179775 102.43152729 -23.92551375 99.19248214 -16.4375 96.375 C-15.62450439 96.06908936 -14.81150879 95.76317871 -13.97387695 95.44799805 C-5.25627052 92.25386415 2.62046711 89.4044741 12 90 C13 91 13 91 13.4375 93.5 C12.28907495 102.68740039 3.98406076 109.85831379 -2.9375 115.31640625 C-11.78559874 122.01451164 -21.05419474 128.1080979 -30.34741211 134.16577148 C-44.06611054 142.67067465 -44.06611054 142.67067465 -54 155 C-55.04610323 162.77105259 -53.43736586 168.60065833 -49 175 C-40.92974263 185.57246787 -40.92974263 185.57246787 -29.59765625 191.43359375 C-16.47665224 191.45381101 -5.16310862 186.53673513 6.1875 180.375 C7.36551925 179.74861604 8.54424207 179.12355366 9.72363281 178.49975586 C13.15652228 176.68027327 16.57825059 174.84035046 20 173 C68.3465701 147.22679837 68.3465701 147.22679837 87 150 C90.09780701 151.28329192 90.84770584 152.2078346 93 155 C94.45242721 162.79029142 90.90647851 168.67775832 86.63671875 175.02734375 C76.19599635 188.21988445 59.61339945 195.69124337 45.10644531 203.3515625 C11.21279844 218.95332836 11.21279844 218.95332836 -12 245 C-12.63020959 250.46181646 -11.31181965 255.06838773 -9.75390625 260.25390625 C-8.96672055 263.12121996 -8.4888251 266.0670494 -8 269 C-11.96 270.98 -15.92 272.96 -20 275 C-27.0427499 266.79935119 -33.87081802 258.4702989 -40.49609375 249.92919922 C-42.09108576 247.8831559 -43.70073533 245.8492584 -45.3125 243.81640625 C-53.98363488 232.83923536 -62.11050399 221.54992676 -70 210 C-70.4532666 209.33935547 -70.9065332 208.67871094 -71.37353516 207.99804688 C-83.13249255 190.81361587 -93.79010947 172.89748427 -104.2890625 154.92480469 C-105.45221849 152.93641874 -106.61902202 150.95016298 -107.7890625 148.96582031 C-119.89608295 128.42896488 -131.37226183 107.52516232 -141.25 85.8125 C-141.59659668 85.05404785 -141.94319336 84.2955957 -142.30029297 83.51416016 C-149.00398336 68.36049684 -149.00398336 68.36049684 -147 62 C-142.91359684 56.29520424 -136.91369928 52.81112938 -130.875 49.5 C-129.97612061 48.99718506 -129.07724121 48.49437012 -128.15112305 47.97631836 C-116.77808224 41.67500014 -105.20828168 35.74036274 -93.62060547 29.84619141 C-90.17780185 28.0939652 -86.74712537 26.31874445 -83.31640625 24.54296875 C-16.16816412 -9.94963946 -16.16816412 -9.94963946 0 0 Z " fill="#006398" transform="translate(407,55)"/>
<path d="M0 0 C0.88768066 0.25885986 1.77536133 0.51771973 2.68994141 0.78442383 C29.73096455 9.05067148 55.45719259 22.15553923 80.30957031 35.45556641 C82.93380727 36.84749361 85.57055017 38.21318957 88.2109375 39.57421875 C115.82515171 53.82515171 115.82515171 53.82515171 124.75 62.75 C124.30205878 88.28264979 103.25599134 118.40063209 90.75 139.75 C89.73652485 141.49446579 88.72307075 143.23894395 87.71031189 144.98382568 C83.42658272 152.3609181 79.1043523 159.71477736 74.75518799 167.0534668 C73.80295172 168.6606293 72.85235512 170.26876296 71.90185547 171.87695312 C53.25675235 203.32853093 31.87878295 232.72880016 8.78125 261.01953125 C5.5498776 264.98301146 2.38253345 268.99435217 -0.76171875 273.02734375 C-2.25 274.75 -2.25 274.75 -4.25 275.75 C-6.59765625 274.60546875 -6.59765625 274.60546875 -9.3125 272.9375 C-10.21097656 272.39480469 -11.10945312 271.85210937 -12.03515625 271.29296875 C-14.25 269.75 -14.25 269.75 -15.25 267.75 C-14.66453424 265.91710972 -14.00572247 264.10740935 -13.3125 262.3125 C-10.75626956 254.8842903 -9.84106292 248.52851307 -12.625 241.0625 C-17.81031154 233.38623889 -27.36169747 228.11175005 -35.0625 223.25 C-35.98611328 222.66395996 -36.90972656 222.07791992 -37.86132812 221.47412109 C-48.10790692 215.06916725 -58.69516326 209.29832318 -69.3125 203.5390625 C-74.14039693 200.91403691 -78.94929365 198.25974703 -83.73046875 195.55078125 C-84.83028076 194.92856689 -85.93009277 194.30635254 -87.06323242 193.6652832 C-99.01320021 186.48321798 -111.54620741 177.38647563 -116.25 163.75 C-116.90634121 159.30146514 -116.82948709 157.63854687 -114.375 153.875 C-111.17260764 150.67260764 -109.19241097 150.52083672 -104.75 150.375 C-80.66553099 150.66581137 -58.34352323 165.07641712 -37.796875 176.2109375 C-15.84704226 189.05235778 -15.84704226 189.05235778 8.75 191.75 C12.08478357 190.44429549 12.08478357 190.44429549 14.75 187.75 C15.45769531 187.10546875 16.16539062 186.4609375 16.89453125 185.796875 C22.92447756 180.07692593 30.25046535 172.95575734 30.953125 164.2265625 C31.10578393 157.01189377 31.10578393 157.01189377 27.75 150.75 C27.75 150.09 27.75 149.43 27.75 148.75 C27.20093994 148.50330566 26.65187988 148.25661133 26.08618164 148.00244141 C23.27216224 146.49382822 20.89826061 144.66356151 18.37109375 142.7109375 C13.9769132 139.35932194 9.50859925 136.16682667 4.91015625 133.1015625 C4.3332605 132.71694351 3.75636475 132.33232452 3.1619873 131.93605042 C1.98109498 131.14986761 0.79992015 130.364109 -0.38153076 129.57876587 C-33.07151584 107.78930929 -33.07151584 107.78930929 -35.85546875 97.515625 C-36.1875 95.3125 -36.1875 95.3125 -36.25 91.75 C-35.25 90.75 -35.25 90.75 -31.74609375 90.54296875 C-27.00690417 90.6134517 -22.82173007 91.67069421 -18.3125 93.0625 C-17.45986572 93.32248779 -16.60723145 93.58247559 -15.72875977 93.8503418 C-2.28730529 98.14027034 10.50810252 104.26510035 23.2109375 110.35546875 C24.0558374 110.76047607 24.9007373 111.1654834 25.77124023 111.58276367 C27.31407779 112.32807097 28.85310184 113.08136022 30.38696289 113.8449707 C38.17492305 117.64835117 46.93973232 121.25932873 55.75 119.75 C62.69491846 116.03527617 66.55009224 107.88331337 69.125 100.75 C71.17865897 93.95049046 72.09072025 88.21100005 69.1875 81.5625 C64.3075803 73.26750715 55.65099071 69.17811564 47.5 64.625 C-16.93598485 28.11362199 -16.93598485 28.11362199 -22.8671875 7.6171875 C-23.56608655 2.21660395 -23.56608655 2.21660395 -21.9375 -0.1875 C-15.2544982 -4.39531595 -7.13285856 -2.10400271 0 0 Z " fill="#006398" transform="translate(856.25,54.25)"/>
<path d="M0 0 C12.28727018 1.16772639 22.82117295 12.39579505 32 20 C33.12728516 20.92619141 33.12728516 20.92619141 34.27734375 21.87109375 C36.23684349 23.53231869 38.12430939 25.24441011 40 27 C40.46583496 27.43328613 40.93166992 27.86657227 41.41162109 28.31298828 C64.95237692 50.40305327 80.76045619 80.20222625 82.16796875 112.90234375 C82.57706893 147.8050488 71.76587917 181.80891839 47.51953125 207.5078125 C35.93835325 218.9633033 22.46462963 226.21506165 7 231 C6.00742188 231.30808594 5.01484375 231.61617187 3.9921875 231.93359375 C-14.03054176 237.17976425 -34.67710535 236.24116644 -53 233 C-53.67063477 232.8870459 -54.34126953 232.7740918 -55.03222656 232.65771484 C-88.14618246 226.907802 -121.28313803 209.92539606 -145 186 C-131.97534457 185.29861689 -119.40073924 187.4423413 -106.5625 189.375 C-49.60698168 198.5611114 -49.60698168 198.5611114 2.69140625 178.0546875 C5.19618758 176.10439975 7.61038268 174.08939375 10 172 C10.68707031 171.40832031 11.37414063 170.81664062 12.08203125 170.20703125 C26.79014609 156.60129977 34.27664131 136.72509082 35.3203125 117.01171875 C36.13726053 91.44479725 26.5052476 69.86613914 16.0625 47.0625 C13.01333571 40.3875768 9.98031021 33.70599477 7 27 C6.47487823 25.81890656 6.47487823 25.81890656 5.93914795 24.61395264 C4.94268614 22.3518124 3.96596626 20.08224232 2.99609375 17.80859375 C2.70549576 17.15053238 2.41489777 16.49247101 2.11549377 15.81446838 C0.10223587 11.00846324 -0.95395737 6.2341957 -1 1 C-0.67 0.67 -0.34 0.34 0 0 Z " fill="#006398" transform="translate(1091,206)"/>
<path d="M0 0 C-0.56015549 15.96443158 -10.56453873 32.07514482 -17.11108398 46.3762207 C-27.55942639 68.27702409 -27.55942639 68.27702409 -34.4375 91.4375 C-34.66759766 92.60152344 -34.66759766 92.60152344 -34.90234375 93.7890625 C-39.05540773 116.81631905 -34.53450068 138.60631036 -21.94921875 158.19140625 C-8.98031707 176.70042127 10.28566719 187.67168087 32 193 C32.62994873 193.1743457 33.25989746 193.34869141 33.90893555 193.52832031 C60.41662547 199.50763811 93.99844184 190.32065427 120.36987305 186.17773438 C128.31278188 184.97765826 135.97494996 184.51607738 144 185 C119.75050621 209.64061465 86.79020012 225.56054361 53 232 C51.33517578 232.33644531 51.33517578 232.33644531 49.63671875 232.6796875 C20.52452603 237.58208673 -9.6089549 234.18285941 -34.625 217.9375 C-60.38793473 199.11074001 -76.28848318 169.62169473 -81.27709961 138.30566406 C-85.4954915 105.65495485 -79.16352889 73.61373762 -59.6875 46.8125 C-54.80718815 40.55828343 -49.5054651 34.70735407 -44 29 C-43.47156494 28.4445752 -42.94312988 27.88915039 -42.39868164 27.31689453 C-38.13459281 22.92594526 -33.58277451 19.16495283 -28.6875 15.5 C-27.94201904 14.93684082 -27.19653809 14.37368164 -26.4284668 13.79345703 C-5.75237938 -1.76243113 -5.75237938 -1.76243113 0 0 Z " fill="#006398" transform="translate(150,207)"/>
<path d="M0 0 C0.66 0 1.32 0 2 0 C5.10301678 5.9821233 8.19387165 11.97042605 11.27734375 17.96264648 C12.32192228 19.98939062 13.36901956 22.0148391 14.41894531 24.03881836 C24.41594384 43.31805881 34.45356465 62.90416948 40 84 C40.24363281 84.88558594 40.48726562 85.77117187 40.73828125 86.68359375 C43.97310201 100.78917271 43.97977543 118.44091654 36.8125 131.25 C29.22617562 142.19310507 17.69720705 146.46055859 5 149 C-0.82091085 149.81036364 -6.5959872 150.17669413 -12.46875 150.23828125 C-13.25322006 150.24816574 -14.03769012 150.25805023 -14.84593201 150.26823425 C-35.86984038 150.47742416 -56.21361619 149.28000358 -77 146 C-77.95156982 145.8501062 -78.90313965 145.7002124 -79.88354492 145.54577637 C-92.59371516 143.53597128 -105.2895607 141.44513053 -117.98045349 139.31744385 C-125.30569426 138.09705568 -132.6394667 136.98866856 -140 136 C-136.3120203 133.09398139 -132.43444335 131.40925417 -128.125 129.625 C-104.57903196 119.51926718 -82.07852906 104.4386265 -63.2578125 87.0703125 C-61.23524746 85.21571134 -59.16516016 83.44964839 -57.0625 81.6875 C-32.17355874 59.83500958 -14.96944783 29.08551926 0 0 Z " fill="#8796B2" transform="translate(1033,778)"/>
<path d="M0 0 C0.66 0 1.32 0 2 0 C2.45101074 0.89585815 2.45101074 0.89585815 2.91113281 1.80981445 C15.68620187 27.0581983 30.47459384 49.63363699 49 71 C49.60070312 71.72445312 50.20140625 72.44890625 50.8203125 73.1953125 C59.79839255 83.90828725 70.8884561 92.61933763 82 101 C82.55381348 101.4213623 83.10762695 101.84272461 83.67822266 102.27685547 C101.6414901 115.8593556 121.69082721 125.49566244 142 135 C142 135.33 142 135.66 142 136 C139.9431323 136.31319344 137.88626369 136.6263809 135.82939148 136.93954468 C133.97742776 137.22151794 132.12546868 137.50352167 130.27351379 137.78555298 C125.09217218 138.57449309 119.91070196 139.36257411 114.72900391 140.14916992 C105.25078486 141.58850449 95.77313149 143.03029107 86.30078125 144.5078125 C78.54021157 145.71686328 70.77429598 146.8819613 63 148 C62.09459473 148.13277344 61.18918945 148.26554688 60.25634766 148.40234375 C48.43160226 150.07647752 36.60924965 150.19841296 24.6875 150.25 C23.92295502 150.2554483 23.15841003 150.26089661 22.37069702 150.26651001 C3.77933196 150.3652208 -14.91427716 149.26534857 -30 137 C-39.07678157 127.6779 -40.42195455 115.66218907 -40.36132812 103.26733398 C-39.78895899 74.6710811 -24.64361679 47.4222168 -11.5078125 22.7578125 C-7.52303741 15.24768345 -3.7690285 7.61999241 0 0 Z " fill="#ABD1E5" transform="translate(205,778)"/>
<path d="M0 0 C0.33 0 0.66 0 1 0 C0.08244603 16.42105216 -3.56800526 32.34698373 -7.5625 48.25 C-7.77997894 49.11750885 -7.99745789 49.9850177 -8.2215271 50.8788147 C-21.15653791 102.12611236 -43.43042541 151.49495289 -79.7265625 190.5390625 C-81.75288439 192.73250372 -83.69575452 194.97156982 -85.625 197.25 C-89.11540796 201.23903767 -92.91114637 204.63460862 -97 208 C-97.52094238 208.43328613 -98.04188477 208.86657227 -98.57861328 209.31298828 C-113.39152395 221.5953427 -129.17162708 231.69400403 -146 241 C-146.65516602 241.36335449 -147.31033203 241.72670898 -147.98535156 242.10107422 C-168.21856912 253.15999402 -199.28659765 268 -223 268 C-221.28840112 264.09870199 -218.74054889 260.87426539 -216.1875 257.5 C-209.33711517 248.29283663 -203.16516945 238.67381675 -197 229 C-196.41782715 228.08702148 -195.8356543 227.17404297 -195.23583984 226.23339844 C-192.28118548 221.59671481 -189.33136932 216.95696893 -186.3828125 212.31640625 C-183.18435611 207.28620652 -179.9763029 202.2623885 -176.75 197.25 C-176.0691333 196.18616089 -176.0691333 196.18616089 -175.37451172 195.10083008 C-173.71604918 192.53120527 -172.16941456 190.16941456 -170 188 C-169.29359375 187.87109375 -168.5871875 187.7421875 -167.859375 187.609375 C-154.86010098 184.83903791 -143.30643815 174.73146898 -133.16357422 166.68505859 C-129.55705515 163.87618987 -125.84267783 161.22145312 -122.125 158.5625 C-120.62349045 157.48336152 -119.12219007 156.40393195 -117.62109375 155.32421875 C-116.48969971 154.51090088 -116.48969971 154.51090088 -115.33544922 153.68115234 C-103.52655237 145.180623 -91.91832137 136.62706128 -81 127 C-80.00871094 126.16597656 -79.01742187 125.33195313 -77.99609375 124.47265625 C-69.96959686 117.51356833 -63.72603685 109.62827505 -57.49462891 101.04882812 C-56.16698683 99.22890452 -54.81529341 97.43173676 -53.44921875 95.640625 C-45.98150809 85.61849285 -39.89241493 74.80324309 -33.69873047 63.96386719 C-32.1263402 61.2204326 -30.5385275 58.48690456 -28.94140625 55.7578125 C-26.26709589 51.18722272 -23.61878032 46.60263915 -21 42 C-20.65308105 41.39027344 -20.30616211 40.78054688 -19.94873047 40.15234375 C-14.3607225 30.23536285 -9.6534261 19.9287755 -4.94750977 9.57006836 C-4.20198853 7.93050171 -4.20198853 7.93050171 -3.44140625 6.2578125 C-2.99482666 5.2692627 -2.54824707 4.28071289 -2.08813477 3.26220703 C-1 1 -1 1 0 0 Z " fill="#8796B2" transform="translate(1060,655)"/>
<path d="M0 0 C2.2268565 1.6855 4.34282912 3.4486851 6.453125 5.27734375 C7.57460938 6.18419922 7.57460938 6.18419922 8.71875 7.109375 C19.45372206 16.07344181 25.91642925 27.65035286 31.453125 40.27734375 C31.91203125 41.30601562 32.3709375 42.3346875 32.84375 43.39453125 C39.11533762 60.75181247 37.57705582 83.41436827 30.453125 100.27734375 C30.19611816 100.89593262 29.93911133 101.51452148 29.67431641 102.15185547 C25.91558883 110.99605609 20.90840652 118.2083173 14.453125 125.27734375 C13.76605469 126.05722656 13.07898438 126.83710937 12.37109375 127.640625 C-1.00786624 142.01245771 -20.96385717 151.17316032 -40.546875 152.27734375 C-41.68511719 152.34179688 -42.82335937 152.40625 -43.99609375 152.47265625 C-57.56054039 152.87121981 -70.36079613 150.48116572 -82.546875 144.27734375 C-79.546875 143.27734375 -79.546875 143.27734375 -75.921875 144.21484375 C-60.13299574 147.93138189 -43.61807711 144.73870458 -29.4609375 137.1640625 C-15.27059318 127.97648032 -5.47012744 114.47531194 -1.43359375 98.015625 C1.20464485 85.48955615 0.44416639 72.05870477 -4.546875 60.27734375 C-4.94777344 59.27574219 -5.34867188 58.27414062 -5.76171875 57.2421875 C-11.49400653 44.36530914 -22.35217926 33.00668456 -35.44238281 27.4765625 C-53.46001691 20.57054059 -71.17420858 19.91513132 -88.953125 27.78515625 C-104.29967748 35.49428892 -115.1069252 47.78153839 -120.83984375 64.01171875 C-121.07316406 64.759375 -121.30648437 65.50703125 -121.546875 66.27734375 C-121.76988281 66.9425 -121.99289062 67.60765625 -122.22265625 68.29296875 C-125.14396142 78.70632866 -124.64270785 91.01997477 -121.10546875 101.17578125 C-120.546875 103.27734375 -120.546875 103.27734375 -121.546875 106.27734375 C-130.16424687 85.7727672 -133.88708321 62.57298773 -125.546875 41.27734375 C-115.89693919 18.42839066 -100.24234967 1.11970714 -77.28125 -8.73046875 C-72.46867073 -10.47674751 -67.54971185 -11.66188282 -62.546875 -12.72265625 C-61.76642822 -12.89394043 -60.98598145 -13.06522461 -60.18188477 -13.24169922 C-39.24893022 -17.06250163 -17.48786673 -11.82844973 0 0 Z " fill="#FCFCFC" transform="translate(888.546875,595.72265625)"/>
<path d="M0 0 C0.90234375 0.41894531 1.8046875 0.83789062 2.734375 1.26953125 C22.9359912 11.39953244 35.14587174 28.96148908 43.3828125 49.4375 C49.19219413 67.31252039 47.65086484 88.5766076 41 106 C39.33203125 108.5078125 39.33203125 108.5078125 38 110 C38.2165625 108.515 38.2165625 108.515 38.4375 107 C38.57285156 106.03513672 38.57285156 106.03513672 38.7109375 105.05078125 C38.98658419 103.09517973 39.27423713 101.1412817 39.5625 99.1875 C41.60961393 81.95212139 37.89601433 65.92730161 27.8125 51.6875 C18.16379292 39.5903731 4.96564191 31.14556338 -10.3984375 28.390625 C-28.51524023 26.42567893 -44.74679084 29.27103868 -59.6875 40.25 C-71.99249771 50.46337061 -80.94147222 63.88413835 -83 80 C-84.34109558 98.29549664 -81.38283364 115.55499776 -69.08813477 129.89624023 C-58.85473728 141.15708011 -45.25736263 149.77957787 -29.77490234 151.20483398 C-27.42916851 151.30309378 -25.09770033 151.32803028 -22.75 151.3125 C-21.92097168 151.31048584 -21.09194336 151.30847168 -20.23779297 151.30639648 C-13.48416935 151.19674695 -7.45044075 149.98871416 -1 148 C0.66274909 147.64764458 2.32856346 147.30852682 4 147 C-8.10611802 157.15732829 -28.56161803 159.1048167 -43.72851562 158.20263672 C-62.4252706 156.53471898 -78.96595732 148.14407132 -93 136 C-93.67289062 135.42765625 -94.34578125 134.8553125 -95.0390625 134.265625 C-109.49655525 120.93040338 -118.37483139 100.64711974 -119.3828125 81.20703125 C-119.85785853 64.8871939 -117.7578224 50.58561347 -110 36 C-109.33871094 34.74123047 -109.33871094 34.74123047 -108.6640625 33.45703125 C-104.94563289 26.83165253 -100.23765613 21.46859334 -95 16 C-94.42378906 15.360625 -93.84757812 14.72125 -93.25390625 14.0625 C-69.76049307 -11.17742591 -29.81149541 -14.21340423 0 0 Z " fill="#FCFCFC" transform="translate(435,590)"/>
<path d="M0 0 C2.64414665 3.24427881 4.35200358 6.63110797 6.140625 10.40625 C9.7638104 17.84273749 14.10462542 24.66412457 18.75 31.5 C19.342435 32.37958878 19.342435 32.37958878 19.94683838 33.27694702 C25.93123043 42.16055256 32.09616793 50.80366969 39 59 C39.47066895 59.56396484 39.94133789 60.12792969 40.42626953 60.70898438 C43.89339019 64.85720771 47.42158883 68.94748123 51 73 C51.72872314 73.82564453 51.72872314 73.82564453 52.47216797 74.66796875 C64.16576617 87.82668533 76.95628595 99.40460531 91 110 C91.58861816 110.45084961 92.17723633 110.90169922 92.78369141 111.36621094 C102.75298542 118.99408782 113.15873848 125.6805638 124 132 C124.73089844 132.42667969 125.46179688 132.85335937 126.21484375 133.29296875 C134.96850278 138.36416159 143.88992187 143.03889009 153 147.4375 C153.84796143 147.8507251 154.69592285 148.2639502 155.56958008 148.68969727 C159.7988296 150.69394155 163.74673055 152.22501354 168.3046875 153.30859375 C172.8770436 154.62026945 174.65767318 156.29815579 176.97607422 160.39282227 C177.35521973 161.12944092 177.73436523 161.86605957 178.125 162.625 C179.04323442 164.25336038 179.96534315 165.87954007 180.890625 167.50390625 C181.38240234 168.38449707 181.87417969 169.26508789 182.38085938 170.17236328 C185.37808368 175.4066594 188.6276351 180.48090752 191.875 185.5625 C192.55216064 186.6251709 193.22932129 187.6878418 193.92700195 188.78271484 C199.04838976 196.72975916 204.5439813 204.27506598 210.42578125 211.671875 C212.52822815 214.32680616 214.34377026 217.03800551 216 220 C167.78344741 213.39395264 119.85491607 188.24075151 84.44140625 155.25 C82.36518456 153.33655409 80.24295577 151.54092876 78.0625 149.75 C52.61557694 127.51633403 32.84611038 92.73525615 20 62 C19.52796143 60.88093262 19.52796143 60.88093262 19.04638672 59.73925781 C13.87443232 47.36600009 9.508841 34.78842124 5.5 22 C5.28049683 21.3040976 5.06099365 20.60819519 4.83483887 19.89120483 C4.20568873 17.8879285 3.58540978 15.88215255 2.96875 13.875 C2.43411133 12.13863281 2.43411133 12.13863281 1.88867188 10.3671875 C0.97860182 6.91892206 0.43426196 3.5370974 0 0 Z " fill="#8797B2" transform="translate(188,703)"/>
<path d="M0 0 C0 20.13 0 40.26 0 61 C-46.96207651 63.0642671 -93.05697003 63.37686228 -140 61 C-140 41.2 -140 21.4 -140 1 C-134.39 1.66 -128.78 2.32 -123 3 C-117.8025664 3.24995095 -112.63621473 3.45380683 -107.4375 3.5625 C-99.62202338 3.74924499 -91.8276691 3.97909728 -84.02734375 4.51171875 C-76.0618465 5.04513851 -68.10890108 5.23977079 -60.125 5.25 C-59.42154449 5.25167175 -58.71808899 5.25334351 -57.99331665 5.25506592 C-41.01541086 5.25745378 -24.4065145 3.38555522 -7.70239258 0.38037109 C-5 0 -5 0 0 0 Z " fill="#8897B3" transform="translate(690,879)"/>
<path d="M0 0 C0.30760254 0.62003906 0.61520508 1.24007812 0.93212891 1.87890625 C8.62638772 17.16187849 20.4710855 26.61705654 36 33 C50.13776696 37.10977518 65.57085267 33.63905418 78.4140625 27.3203125 C81.3786958 25.66512021 84.1950563 23.91148537 87 22 C87.68707031 21.53980469 88.37414062 21.07960938 89.08203125 20.60546875 C94.45750485 16.54165756 97.09359368 10.95678324 100 5 C100.66666667 3.66666667 101.33333333 2.33333333 102 1 C102.53625 1.51046875 103.0725 2.0209375 103.625 2.546875 C125.68327834 23.00883056 152.29211133 38.50006849 180 50 C180 50.33 180 50.66 180 51 C177.9431323 51.31319344 175.88626369 51.6263809 173.82939148 51.93954468 C171.97742776 52.22151794 170.12546868 52.50352167 168.27351379 52.78555298 C163.09217218 53.57449309 157.91070196 54.36257411 152.72900391 55.14916992 C143.25078486 56.58850449 133.77313149 58.03029107 124.30078125 59.5078125 C116.54021157 60.71686328 108.77429598 61.8819613 101 63 C100.09459473 63.13277344 99.18918945 63.26554688 98.25634766 63.40234375 C86.43160226 65.07647752 74.60924965 65.19841296 62.6875 65.25 C61.92295502 65.2554483 61.15841003 65.26089661 60.37069702 65.26651001 C41.77933196 65.3652208 23.08572284 64.26534857 8 52 C-0.41430345 43.35828294 -2.35095381 32.23468825 -2.25 20.625 C-2.25773438 19.74328125 -2.26546875 18.8615625 -2.2734375 17.953125 C-2.25527944 11.76122625 -1.42312183 6.02152347 0 0 Z " fill="#8796B2" transform="translate(167,863)"/>
<path d="M0 0 C2.9507682 3.22077781 4.77225934 6.32552454 6.375 10.3671875 C6.79668457 11.40665527 7.21836914 12.44612305 7.65283203 13.51708984 C8.09739746 14.6252002 8.54196289 15.73331055 9 16.875 C21.61285968 49.88798831 21.61285968 49.88798831 46 74 C50.43848078 74.426777 53.8306876 74.35620185 57.47265625 71.5546875 C69.10232037 59.71681968 73.67821735 40.58962817 78.24780273 25.20263672 C78.56305908 24.16768066 78.87831543 23.13272461 79.203125 22.06640625 C79.47801758 21.13771729 79.75291016 20.20902832 80.03613281 19.25219727 C81 17 81 17 84 15 C87 15.0625 87 15.0625 90 16 C93.260979 20.26370898 94.38888029 25.22855725 95.8125 30.3125 C102.11444249 54.2437691 102.11444249 54.2437691 116.75 73.3125 C121.08090964 74.6358335 124.85265908 74.9995512 128.98046875 73.078125 C148.55286854 59.79545848 159.72150998 28.18917853 167.89477539 6.96362305 C169.79762612 2.10118694 169.79762612 2.10118694 172 1 C175 0.8125 175 0.8125 178 1 C180 3 180 3 180.28295898 6.20947266 C179.98211936 10.2395296 179.08961017 12.95903463 177.47265625 16.6484375 C177.07647346 17.56383553 177.07647346 17.56383553 176.67228699 18.49772644 C175.81619781 20.46324479 174.94074093 22.41929033 174.0625 24.375 C173.46235969 25.7315986 172.86242587 27.08828856 172.26269531 28.44506836 C151.03956769 76.15246486 151.03956769 76.15246486 130 86 C124.3941915 87.72322766 119.18312809 87.83436929 113.875 85.3125 C98.38835601 76.58805533 91.81124502 58.96298787 86 43 C85.79955078 43.53778076 85.59910156 44.07556152 85.39257812 44.62963867 C72.71967524 78.29832312 72.71967524 78.29832312 58.6875 85.4375 C53.12847712 87.62140185 47.71479479 88.06439092 41.94140625 86.41015625 C16.41990461 75.26696539 3.98709973 38.56513704 -6 15 C-6.37447266 14.13093018 -6.74894531 13.26186035 -7.13476562 12.36645508 C-8.32772536 9.10365634 -8.31869333 6.44188793 -8 3 C-5.96763864 -0.31595801 -3.73306683 -0.72840328 0 0 Z " fill="#020304" transform="translate(534,644)"/>
<path d="M0 0 C2.52240067 2.28473325 4.00024666 4.57402336 5.56640625 7.5859375 C6.0469043 8.50576416 6.52740234 9.42559082 7.02246094 10.37329102 C7.53067383 11.36385498 8.03888672 12.35441895 8.5625 13.375 C9.09262695 14.40359131 9.62275391 15.43218262 10.16894531 16.49194336 C11.79051018 19.65574159 13.39832951 22.82608865 15 26 C15.4645459 26.9182959 15.9290918 27.8365918 16.40771484 28.78271484 C40.11649621 76.01648857 40.11649621 76.01648857 36 95 C31.25012559 99.86862127 24.14361606 101.02841169 17.51953125 101.30078125 C15.9506329 101.31993631 14.38147735 101.32341016 12.8125 101.3125 C11.98532471 101.30831055 11.15814941 101.30412109 10.3059082 101.29980469 C1.03624411 101.13075853 -8.76578698 100.30674981 -16 94 C-21.1272186 88.45706097 -21.40558081 83.62939409 -21.34765625 76.28125 C-19.8265241 50.11013956 -8.80829535 24.38633542 0 0 Z " fill="#ABD1E5" transform="translate(1039,789)"/>
<path d="M0 0 C0.99 0.495 0.99 0.495 2 1 C-0.08071569 3.54381878 -2.16511685 6.08459616 -4.25 8.625 C-4.8171875 9.31851563 -5.384375 10.01203125 -5.96875 10.7265625 C-7.96803552 13.16047531 -9.98202932 15.58155293 -12 18 C-12.42062714 18.50747772 -12.84125427 19.01495544 -13.27462769 19.53781128 C-20.79951195 28.59144925 -28.76795519 37.08343374 -37.1184082 45.37915039 C-39.07155488 47.32150484 -41.0136762 49.27442958 -42.95507812 51.22851562 C-50.00170081 58.28256216 -57.17132243 64.81589842 -65 71 C-66.13782113 71.96899592 -67.26926256 72.94559765 -68.390625 73.93359375 C-81.5382497 85.44674598 -97.06925979 98.4956804 -115.3125 98.27734375 C-120.43537957 97.74867449 -123.01957033 94.95651675 -126.5625 91.5 C-133.7940326 82.12923589 -135.34453178 70.35947301 -137 59 C-136.24332031 59.77988281 -135.48664062 60.55976562 -134.70703125 61.36328125 C-128.2934557 67.61027042 -120.92771878 69.97120556 -112.125 70.375 C-81.39175398 69.60985695 -56.24713128 48.74765677 -34.01171875 29.578125 C-31.21476951 27.18384938 -28.37150572 24.86633432 -25.5 22.5625 C-20.11003722 18.18118523 -15.04765398 13.49041694 -9.97265625 8.75390625 C-6.73122552 5.73411181 -3.39682256 2.84385145 0 0 Z " fill="#8796B2" transform="translate(836,909)"/>
<path d="M0 0 C3.76565039 1.50457906 5.54295677 3.63416567 8 6.8125 C12.94439311 13.02154811 18.23389156 18.83793963 23.68408203 24.60498047 C24.7752368 25.76172599 25.85581906 26.92843401 26.93359375 28.09765625 C42.58632281 44.57618876 67.96658816 57.19840216 90.75 58.4375 C97.1371188 58.17534214 102.91632189 55.71324644 107.8125 51.6875 C113.05467332 45.24711564 116.10131407 39.84676193 118.5625 31.9375 C118.85987061 31.01735107 119.15724121 30.09720215 119.46362305 29.14916992 C121.54365492 22.65282618 123.44590585 16.11810575 125.17578125 9.51953125 C126 7 126 7 128 5 C128.91220746 62.29364538 128.91220746 62.29364538 115.0078125 77.125 C109.93554051 81.73277822 106.2998352 83.32136831 99.453125 83.2109375 C81.37219385 81.65620775 65.96435672 65.82477803 52.86181641 54.55859375 C51.47602789 53.39850014 50.06836016 52.26444393 48.64990234 51.14453125 C41.17612509 45.20822457 34.42136707 38.7290371 27.70166016 31.96240234 C25.87751253 30.12752731 24.04290127 28.30360668 22.20703125 26.48046875 C16.02799627 20.30768722 10.17832868 14.07452005 4.77392578 7.20263672 C3.08702464 5.01363108 3.08702464 5.01363108 1.26123047 3.32470703 C0 2 0 2 0 0 Z " fill="#8796B2" transform="translate(415,924)"/>
<path d="M0 0 C3.56867997 2.98773207 4.46729561 4.56176631 5.0625 9.125 C4.58291545 13.12153796 3.22010567 15.15459308 0.6875 18.25 C-2.72707004 20.84036348 -6.14532171 20.68108741 -10.3125 20.25 C-13.42391288 18.6062347 -15.60143717 17.21963114 -17.6875 14.375 C-19.00851084 9.88356315 -18.79633625 7.14855304 -16.5625 3 C-11.9714009 -2.61134335 -6.54145345 -3.4558622 0 0 Z " fill="#F8F8F8" transform="translate(405.3125,640.75)"/>
<path d="M0 0 C3.02508145 1.73602105 5.41790069 3.83580137 7 7 C7.68128376 13.81283762 7.68128376 13.81283762 5.953125 16.82421875 C2.82207185 20.62752744 1.13366332 21.88663367 -3.75 22.375 C-7.10058068 22.35058775 -8.84894532 21.75601354 -11.4375 19.625 C-14.88331435 16.0951414 -15.39555836 14.0716348 -15.359375 9.10546875 C-14.72418186 5.38406547 -12.66020984 3.59687151 -10 1 C-6.77140153 -0.61429923 -3.49006347 -0.59570657 0 0 Z " fill="#FCFCFC" transform="translate(816,639)"/>
<path d="M0 0 C0.66 0.33 1.32 0.66 2 1 C-7.9 10.9 -17.8 20.8 -28 31 C-28.66 30.67 -29.32 30.34 -30 30 C-9.62108014 7.98344948 -9.62108014 7.98344948 0 0 Z " fill="#A6CBDF" transform="translate(283,414)"/>
<path d="M0 0 C4.92127143 4.11779854 9.51454836 8.41462494 14 13 C14.99885387 14.00114482 15.99849284 15.00150943 17 16 C14 16 14 16 12.37426758 14.74658203 C11.80345459 14.17278809 11.2326416 13.59899414 10.64453125 13.0078125 C10.02255859 12.38519531 9.40058594 11.76257813 8.75976562 11.12109375 C8.11716797 10.46238281 7.47457031 9.80367187 6.8125 9.125 C6.15830078 8.47402344 5.50410156 7.82304688 4.83007812 7.15234375 C0 2.26686327 0 2.26686327 0 0 Z " fill="#90A1BE" transform="translate(433,944)"/>
<path d="M0 0 C0.99 0.33 1.98 0.66 3 1 C-3.93 3.97 -3.93 3.97 -11 7 C-11.33 6.34 -11.66 5.68 -12 5 C-12.66 4.67 -13.32 4.34 -14 4 C-13.15695312 3.79503906 -12.31390625 3.59007812 -11.4453125 3.37890625 C-10.34960938 3.10949219 -9.25390625 2.84007812 -8.125 2.5625 C-7.03445313 2.29566406 -5.94390625 2.02882813 -4.8203125 1.75390625 C-2.07515279 1.1213522 -2.07515279 1.1213522 0 0 Z " fill="#CBCBCB" transform="translate(436,737)"/>
</svg>
